<?xml version="1.0" encoding="UTF-8"?>
<svg width="190px" height="88px" viewBox="0 0 190 88" version="1.1" xmlns="http://www.w3.org/2000/svg" xmlns:xlink="http://www.w3.org/1999/xlink">
    <!-- Generator: Sketch 57.1 (83088) - https://sketch.com -->
    <title>aimmune_logo</title>
    <desc>Created with Sketch.</desc>
    <defs>
        <linearGradient x1="0%" y1="49.9754098%" x2="99.942623%" y2="49.9754098%" id="linearGradient-1">
            <stop stop-color="#00A8AC" offset="0%"></stop>
            <stop stop-color="#00A8AC" offset="26%"></stop>
            <stop stop-color="#4CC086" offset="43%"></stop>
            <stop stop-color="#97D860" offset="62%"></stop>
            <stop stop-color="#B5E251" offset="70%"></stop>
            <stop stop-color="#B5E251" offset="100%"></stop>
        </linearGradient>
        <linearGradient x1="0%" y1="49.9754098%" x2="99.9508197%" y2="49.9754098%" id="linearGradient-2">
            <stop stop-color="#B5E251" offset="0%"></stop>
            <stop stop-color="#B5E251" offset="30%"></stop>
            <stop stop-color="#97D860" offset="38%"></stop>
            <stop stop-color="#4CC086" offset="57%"></stop>
            <stop stop-color="#00A8AC" offset="74%"></stop>
            <stop stop-color="#00A8AC" offset="100%"></stop>
        </linearGradient>
    </defs>
    <g id="Symbols" stroke="none" stroke-width="1" fill="none" fill-rule="evenodd">
        <g id="footer/mono" transform="translate(-1085.000000, -41.000000)">
            <g id="aimmune_logo" transform="translate(1085.000000, 41.203390)">
                <g id="Asset-1">
                    <path d="M39.2881356,0 C60.9863737,0 78.5762712,17.6715843 78.5762712,39.4705882 C78.5762712,61.2695922 60.9863737,78.9411765 39.2881356,78.9411765 C17.5898975,78.9411765 0,61.2695922 0,39.4705882 C0,17.6715843 17.5898975,0 39.2881356,0 Z M39.2881356,77.7829412 C60.3603222,77.7722176 77.4340522,60.6018131 77.423385,39.431768 C77.4127079,18.2617229 60.3216749,1.10870168 39.2494883,1.11941657 C18.1773016,1.13014151 1.10356873,18.3005431 1.11423229,39.4705882 C1.14974408,60.6302789 18.2262304,77.7687007 39.2881356,77.7829412 Z" id="Shape" fill="url(#linearGradient-1)" fill-rule="nonzero"></path>
                    <path d="M39.2881356,8.76117647 C60.9863737,8.76117647 78.5762712,26.4327608 78.5762712,48.2317647 C78.5762712,70.0307687 60.9863737,87.7023529 39.2881356,87.7023529 C17.5898975,87.7023529 0,70.0307687 0,48.2317647 C0,26.4327608 17.5898975,8.76117647 39.2881356,8.76117647 Z M39.2881356,86.5441176 C60.3578077,86.5333981 77.4305001,69.3669387 77.4233899,48.1994183 C77.4162752,27.031898 60.3320506,9.87702232 39.2623761,9.88059314 C18.1927017,9.88416507 1.11423729,27.0448314 1.11423729,48.2123529 C1.13909949,69.3796256 18.2186987,86.5298567 39.2881356,86.5441176 L39.2881356,86.5441176 Z" id="Shape" fill="url(#linearGradient-2)" fill-rule="nonzero"></path>
                    <polygon id="Path" fill="#00A8AC" fill-rule="nonzero" points="84.8945763 66.77 84.8945763 59.7235294 82.3827119 59.7235294 82.3827119 58.4294118 88.8813559 58.4294118 88.8813559 59.7235294 86.3694915 59.7235294 86.3694915 66.77"></polygon>
                    <polygon id="Path" fill="#00A8AC" fill-rule="nonzero" points="96.8484746 66.77 96.8484746 63.1335294 92.5332203 63.1335294 92.5332203 66.77 91.0840678 66.77 91.0840678 58.4423529 92.5332203 58.4423529 92.5332203 61.8458824 96.8484746 61.8458824 96.8484746 58.4423529 98.2976271 58.4423529 98.2976271 66.77"></polygon>
                    <polygon id="Path" fill="#00A8AC" fill-rule="nonzero" points="101.060678 66.77 101.060678 58.4423529 106.741356 58.4423529 106.741356 59.7364706 102.516271 59.7364706 102.516271 61.8976471 106.651186 61.8976471 106.651186 63.1917647 102.516271 63.1917647 102.516271 65.5017647 106.741356 65.5017647 106.741356 66.7958824"></polygon>
                    <path d="M113.961356,66.77 L112.119322,63.6576471 L110.67661,63.6576471 L110.67661,66.77 L109.227458,66.77 L109.227458,58.4423529 L112.866441,58.4423529 C113.576774,58.3869998 114.277087,58.6373038 114.793011,59.1309418 C115.308935,59.6245798 115.591927,60.3151066 115.571525,61.0305882 C115.645253,62.2336982 114.793198,63.294592 113.607119,63.4764706 L115.635932,66.7505882 L113.961356,66.77 Z M114.083729,61.05 C114.08556,60.6831335 113.932311,60.3327263 113.662103,60.085942 C113.391895,59.8391578 113.030124,59.7191906 112.66678,59.7558824 L110.67661,59.7558824 L110.67661,62.4088235 L112.66678,62.4088235 C113.041625,62.4472542 113.414426,62.3188737 113.686981,62.0574995 C113.959536,61.7961253 114.104515,61.4279657 114.083729,61.05 Z" id="Shape" fill="#00A8AC" fill-rule="nonzero"></path>
                    <path d="M123.822034,66.77 L123.21661,65.1717647 L119.41661,65.1717647 L118.804746,66.77 L117.149492,66.77 L120.440678,58.4423529 L122.256949,58.4423529 L125.477288,66.77 L123.822034,66.77 Z M121.31661,59.9111765 L119.79661,63.8841176 L122.778644,63.8841176 L121.31661,59.9111765 Z" id="Shape" fill="#00A8AC" fill-rule="nonzero"></path>
                    <path d="M127.377288,66.77 L127.377288,58.4423529 L131.022712,58.4423529 C132.456218,58.4423529 133.618305,59.6098363 133.618305,61.05 C133.618305,62.4901637 132.456218,63.6576471 131.022712,63.6576471 L128.813559,63.6576471 L128.813559,66.77 L127.377288,66.77 Z M132.24,61.05 C132.241831,60.6831335 132.088582,60.3327263 131.818374,60.085942 C131.548167,59.8391578 131.186395,59.7191906 130.823051,59.7558824 L128.813559,59.7558824 L128.813559,62.4088235 L130.803729,62.4088235 C131.181716,62.4534117 131.559982,62.3277919 131.837051,62.0656639 C132.114119,61.8035358 132.261626,61.4317337 132.24,61.05 L132.24,61.05 Z" id="Shape" fill="#00A8AC" fill-rule="nonzero"></path>
                    <polygon id="Path" fill="#00A8AC" fill-rule="nonzero" points="135.930508 66.77 135.930508 58.4423529 141.604746 58.4423529 141.604746 59.7364706 137.386102 59.7364706 137.386102 61.8976471 141.521017 61.8976471 141.521017 63.1917647 137.386102 63.1917647 137.386102 65.5017647 141.604746 65.5017647 141.604746 66.7958824"></polygon>
                    <path d="M144.090847,63.4829412 L144.090847,58.4423529 L145.559322,58.4423529 L145.559322,63.4117647 C145.559322,64.5874815 146.508023,65.5405882 147.678305,65.5405882 C148.848587,65.5405882 149.797288,64.5874815 149.797288,63.4117647 L149.797288,58.4423529 L151.265763,58.4423529 L151.265763,63.47 C151.265763,65.5405882 150.080678,66.9188235 147.684746,66.9188235 C145.288814,66.9188235 144.090847,65.5341176 144.090847,63.4829412 Z" id="Path" fill="#00A8AC" fill-rule="nonzero"></path>
                    <polygon id="Path" fill="#00A8AC" fill-rule="nonzero" points="155.999661 66.77 155.999661 59.7235294 153.487797 59.7235294 153.487797 58.4294118 159.960678 58.4294118 159.960678 59.7235294 157.455254 59.7235294 157.455254 66.77"></polygon>
                    <polygon id="Path" fill="#00A8AC" fill-rule="nonzero" points="162.189153 66.77 162.189153 58.4423529 163.638305 58.4423529 163.638305 66.77"></polygon>
                    <path d="M165.815254,62.6094118 C165.785802,61.4480298 166.236562,60.3262814 167.060331,59.5109471 C167.884101,58.6956128 169.007267,58.2595518 170.162712,58.3064706 C171.529328,58.2719546 172.805921,58.9888769 173.492542,60.1764706 L172.249492,60.8235294 C171.811522,60.0822018 171.020741,59.6236746 170.162712,59.6135294 C168.508666,59.6135295 167.167797,60.9606257 167.167797,62.6223529 C167.167797,64.2840802 168.508666,65.6311764 170.162712,65.6311765 C171.022482,65.6274579 171.81619,65.1672337 172.249492,64.4211765 L173.492542,65.0682353 C172.80657,66.2572862 171.530322,66.976494 170.162712,66.9447059 C169.001509,66.9921232 167.873076,66.5517234 167.048254,65.7292094 C166.223432,64.9066955 165.776691,63.7763276 165.815254,62.6094118 L165.815254,62.6094118 Z" id="Path" fill="#00A8AC" fill-rule="nonzero"></path>
                    <path d="M175.122034,65.5923529 L175.927119,64.4729412 C176.605696,65.2024107 177.554652,65.6170178 178.548475,65.6182353 C179.746441,65.6182353 180.21661,65.0294118 180.21661,64.4858824 C180.21661,62.7323529 175.386102,63.8388235 175.386102,60.7523529 C175.386102,59.3741176 176.590508,58.3129412 178.400339,58.3129412 C179.550281,58.2696022 180.669941,58.6888047 181.511186,59.4776471 L180.673898,60.5647059 C180.03383,59.9387782 179.17103,59.5962498 178.277966,59.6135294 C177.421356,59.6135294 176.873898,60.0276471 176.873898,60.6488235 C176.873898,62.1952941 181.697966,61.2376471 181.697966,64.3435294 C181.697966,65.7282353 180.725424,66.9317647 178.477627,66.9317647 C177.220546,66.9841352 176.000569,66.4971718 175.122034,65.5923529 L175.122034,65.5923529 Z" id="Path" fill="#00A8AC" fill-rule="nonzero"></path>
                    <path d="M99.2959322,33.6470588 C97.3649402,33.7240113 95.5301691,34.5143226 94.1433898,35.8664706 C93.8986634,35.4990625 93.6038087,35.1679886 93.2674576,34.8829412 C92.2507883,34.0558274 90.9750104,33.6178933 89.6671186,33.6470588 C87.8894915,33.6470588 86.3501695,34.9411765 85.4420339,35.6270588 L85.4420339,33.6017647 L82.3698305,34.8958824 L82.3698305,52.7094118 L85.4420339,52.7094118 L85.4420339,39.4705882 C86.440339,38.0729412 88.2115254,36.6494118 89.499661,36.6494118 C91.2515254,36.6494118 91.9922034,37.5617647 91.9922034,39.7035294 L91.9922034,52.7094118 L95.0708475,52.7094118 L95.0708475,39.4317647 C95.9983051,38.0664706 97.8338983,36.6235294 99.1220339,36.6235294 C100.873898,36.6235294 101.621017,37.5358824 101.621017,39.6776471 L101.621017,52.7094118 L104.69322,52.7094118 L104.69322,39.6776471 C104.69322,35.7241176 102.825424,33.6470588 99.2959322,33.6470588 Z" id="Path" fill="#00A8AC" fill-rule="nonzero"></path>
                    <path d="M65.5210169,33.6082353 C63.5883322,33.6832841 61.7521989,34.476488 60.3684746,35.8341176 C60.1213841,35.4646735 59.8244237,35.1314915 59.4861017,34.8441176 C58.4631906,34.0101566 57.1768535,33.571735 55.86,33.6082353 C54.0823729,33.6082353 52.5430508,34.9023529 51.6349153,35.5882353 L51.6349153,33.5241176 L48.5627119,34.8182353 L48.5627119,52.6835294 L51.6349153,52.6835294 L51.6349153,39.4123529 C52.6332203,38.0211765 54.4044068,36.5911765 55.6925424,36.5911765 C57.4444068,36.5911765 58.1915254,37.5035294 58.1915254,39.6452941 L58.1915254,52.6835294 L61.2637288,52.6835294 L61.2637288,39.3994118 C62.1911864,38.0341176 64.0267797,36.5911765 65.3213559,36.5911765 C67.0667797,36.5911765 67.8138983,37.5035294 67.8138983,39.6452941 L67.8138983,52.6835294 L70.8861017,52.6835294 L70.8861017,39.6452941 C70.9183051,35.6982353 69.0569492,33.6082353 65.5210169,33.6082353 Z" id="Path" fill="#00A8AC" fill-rule="nonzero"></path>
                    <path d="M149.005085,33.6082353 C147.433559,33.6082353 145.668814,34.6629412 144.103729,35.7564706 L144.103729,33.5629412 L141.031525,34.8570588 L141.031525,52.7417647 L144.103729,52.7417647 L144.103729,39.3735294 C145.172881,38.0147059 147.188814,36.5911765 148.869831,36.5911765 C151.207797,36.5911765 152.090169,37.5229412 152.090169,40.0205882 L152.090169,52.7417647 L155.168814,52.7417647 L155.168814,40.0205882 C155.155932,35.7629412 153.088475,33.6082353 149.005085,33.6082353 Z" id="Path" fill="#00A8AC" fill-rule="nonzero"></path>
                    <rect id="Rectangle" fill="#00A8AC" fill-rule="nonzero" x="34.399661" y="34.0158824" width="3.07220339" height="18.6352941"></rect>
                    <path d="M35.9325424,26.8399889 C34.8947185,26.8435707 34.0559425,27.6910638 34.058305,28.7337107 C34.0606774,29.7763577 34.9032933,30.6199974 35.9411226,30.6188125 C36.9789519,30.6176251 37.819661,29.7720614 37.819661,28.7294118 C37.819661,28.2271855 37.6206378,27.745623 37.266548,27.391103 C36.9124583,27.036583 36.4324442,26.83828 35.9325424,26.8399889 L35.9325424,26.8399889 Z" id="Path" fill="#00A8AC" fill-rule="nonzero"></path>
                    <path d="M126.791186,47.0994118 C125.728475,48.4582353 123.712542,49.8817647 122.025085,49.8817647 C119.687119,49.8817647 118.804746,48.95 118.804746,46.4523529 L118.804746,33.6988235 L115.732542,33.6988235 L115.732542,46.4523529 C115.732542,50.7035294 117.8,52.8647059 121.876949,52.8647059 C123.448475,52.8647059 125.219661,51.81 126.778305,50.7164706 L126.778305,52.7223529 L129.856949,52.7223529 L129.856949,33.6988235 L126.778305,33.6988235 L126.791186,47.0994118 Z" id="Path" fill="#00A8AC" fill-rule="nonzero"></path>
                    <path d="M15.9149153,34.0676471 C12.6366102,34.0676471 10.4081356,34.9347059 8.22474576,37.0764706 L7.34881356,37.9305882 L9.92508475,39.8264706 L10.5691525,39.1794118 C11.950217,37.7048214 13.9013589,36.9065701 15.9149153,36.9923529 C18.0532203,36.9923529 20.2172881,37.8852941 20.2172881,39.8911765 L20.2172881,41.3276471 C18.8062288,41.1313494 17.384395,41.0232982 15.96,41.0041176 L15.4189831,41.0041176 C14.0170363,40.9545429 12.6178791,41.1628693 11.2905085,41.6188235 C10.6636883,41.8576496 10.0704608,42.177392 9.52576271,42.57 C7.78677966,43.8641176 7.04610169,45.1582353 7.04610169,46.9505882 C7.04610169,51.0529412 10.9942373,52.7223529 14.6976271,52.7223529 C16.6229923,52.7891221 18.5304103,52.3307364 20.2172881,51.3958824 L20.2172881,52.69 L23.43767,52.69 L23.43767,39.8782353 C23.4505085,36.2935294 20.5586441,34.0676471 15.9149153,34.0676471 Z M20.2172881,44.3623529 L20.2172881,47.9794118 C18.7744907,49.2285653 16.916818,49.8868517 15.0132203,49.8235294 C12.2952542,49.8235294 10.4016949,48.9823529 10.4016949,47.0023529 C10.4016949,44.3170588 13.9762712,44.0258824 15.0776271,44 L15.6379661,44 C17.1718519,43.9906866 18.7037672,44.1119041 20.2172881,44.3623529 L20.2172881,44.3623529 Z" id="Shape" fill="#00A8AC" fill-rule="nonzero"></path>
                    <path d="M178.612881,47.5135294 L178.381017,47.7723529 C177.618562,48.6271681 176.645655,49.2653951 175.56,49.6229412 C174.307569,50.0288441 172.964349,50.0580823 171.695593,49.7070588 C169.537966,49.06 168.030847,47.19 167.644407,44.6535294 L181.685085,44.5952941 L181.685085,43.2235294 C181.683258,42.7910498 181.657455,42.3590081 181.607797,41.9294118 C181.446539,39.9684593 180.719049,38.0974361 179.514576,36.5458824 C179.443729,36.4552941 179.366441,36.3711765 179.282712,36.2805882 L179.186102,36.1770588 C178.152241,35.0431874 176.807743,34.2417473 175.321695,33.8735294 C174.565552,33.683433 173.788949,33.5878084 173.009492,33.5888155 L173.009492,33.5888155 C170.638039,33.5954395 168.383714,34.6253202 166.82,36.4164706 C163.473072,40.3885162 163.489443,46.2134762 166.858644,50.1664706 C168.555024,51.9593423 170.921172,52.9566603 173.383051,52.9164706 L173.421695,52.9164706 C174.197771,52.9221997 174.971778,52.8353168 175.727458,52.6576471 C177.342481,52.2718407 178.820146,51.4456107 179.997627,50.27 C180.152203,50.1211765 180.30678,49.9723529 180.454915,49.8105882 L180.635254,49.6229412 L178.612881,47.5135294 Z M167.734576,41.2888235 C168.11249,39.1362886 169.668291,37.3828936 171.753559,36.7594118 C172.173004,36.6417202 172.606206,36.5807903 173.041695,36.5782353 L173.041695,36.3905882 L173.041695,36.5782353 C173.73388,36.5910798 174.417585,36.7337227 175.057627,36.9988235 C176.966317,37.7700665 178.286156,39.5480135 178.477627,41.6058824 L167.670169,41.6511765 C167.689492,41.5411765 167.708814,41.4117647 167.734576,41.2888235 L167.734576,41.2888235 Z" id="Shape" fill="#00A8AC" fill-rule="nonzero"></path>
                    <polygon id="Path" fill="#00A8AC" fill-rule="nonzero" points="183.321017 35.0576471 184.261356 35.0576471 184.261356 37.7170588 184.821695 37.7170588 184.821695 35.0576471 185.768475 35.0576471 185.768475 34.54 183.321017 34.54"></polygon>
                    <polygon id="Path" fill="#00A8AC" fill-rule="nonzero" points="188.930847 34.54 188.061356 36.6429412 187.198305 34.54 186.515593 34.54 186.515593 37.7170588 187.069492 37.7170588 187.069492 35.6335294 187.926102 37.7170588 188.203051 37.7170588 189.059661 35.6335294 189.059661 37.7170588 189.613559 37.7170588 189.613559 34.54"></polygon>
                </g>
            </g>
        </g>
    </g>
</svg>