<?xml version="1.0" encoding="UTF-8"?>
<svg width="253px" height="50px" viewBox="0 0 253 50" version="1.1" xmlns="http://www.w3.org/2000/svg" xmlns:xlink="http://www.w3.org/1999/xlink">
    <!-- Generator: Sketch 53.2 (72643) - https://sketchapp.com -->
    <title>Evk_Giant_LOGO_RGB</title>
    <desc>Created with Sketch.</desc>
    <g id="Symbols" stroke="none" stroke-width="1" fill="none" fill-rule="evenodd">
        <g id="Component/Primary-Nav/Desktop/0.0" transform="translate(-165.000000, -155.000000)" fill-rule="nonzero">
            <g id="Primary-Nav/Desktop" transform="translate(0.000000, 80.000000)">
                <g id="Evk_Giant_LOGO_RGB" transform="translate(165.000000, 75.000000)">
                    <path d="M24.9909524,7.015625 L42.8371429,24.7239583 C32.4735451,33.2192 17.5083596,33.2192 7.1447619,24.7239583 L24.9909524,7.015625 Z M48.2219048,26.5625 L49.9871429,24.8072917 L24.9909524,0 L0,24.8072917 L24.9909524,49.6145833 L28.5266667,46.1041667 L17.6052381,35.265625 C28.6364973,37.7762785 40.1922258,34.4914353 48.2219048,26.5625 L48.2219048,26.5625 Z" id="Shape" fill="#70C7AF"></path>
                    <polygon id="Shape" fill="#4E5859" points="82.3742857 12.7864583 82.3742857 17.15625 70.9552381 17.15625 70.9552381 22.8125 78.7547619 22.8125 78.7547619 27.0625 70.9552381 27.0625 70.9552381 33.1875 82.3742857 33.1875 82.3742857 37.59375 66.0104762 37.59375 66.0104762 12.7864583"></polygon>
                    <path d="M109.376667,23.859375 C106.94619,23.859375 105.610476,25.9427083 105.610476,28.8958333 C105.610476,31.8489583 106.94619,33.890625 109.376667,33.890625 C111.807143,33.890625 113.148095,31.8072917 113.148095,28.8958333 C113.148095,25.984375 111.812381,23.859375 109.376667,23.859375 M109.376667,37.984375 C104.274762,37.984375 100.780952,34.2395833 100.780952,28.8958333 C100.780952,23.5520833 104.274762,19.7604167 109.376667,19.7604167 C114.478571,19.7604167 117.972381,23.5104167 117.972381,28.8958333 C117.972381,34.28125 114.478571,37.984375 109.376667,37.984375" id="Shape" fill="#4E5859"></path>
                    <polygon id="Shape" fill="#4E5859" points="89.0109524 37.59375 82.3742857 20.1510417 87.4761905 20.1510417 91.52 31.7447917 95.4852381 20.1510417 100.388095 20.1510417 93.72 37.59375"></polygon>
                    <polygon id="Rectangle-path" fill="#4E5859" points="120.884762 12.7864583 125.750952 12.7864583 125.750952 37.59375 120.884762 37.59375"></polygon>
                    <polygon id="Shape" fill="#4E5859" points="136.86619 37.59375 132 37.59375 126.458095 28.875 132 20.1510417 136.86619 20.1510417 131.324286 28.875"></polygon>
                    <path d="M141.54381,26.9791667 C141.973333,24.8333333 143.309048,23.703125 145.210476,23.703125 C147.211429,23.703125 148.311429,25.1458333 148.353333,26.9791667 L141.54381,26.9791667 Z M145.152857,19.7604167 C140.244762,19.7604167 136.714286,23.625 136.714286,28.8958333 C136.714286,34.2760417 140.129524,37.984375 145.231429,37.984375 C148.971429,37.984375 151.517143,36.2552083 152.564762,33.453125 L148.41619,32.0729167 C147.97619,33.4322917 146.797619,34.0833333 145.220952,34.0833333 C143.062857,34.0833333 141.554286,32.5208333 141.412857,29.9166667 L153.109524,29.9166667 L153.109524,28.4270833 C153.109524,23.3125 150.280952,19.7604167 145.142381,19.7604167 L145.152857,19.7604167 Z" id="Shape" fill="#4E5859"></path>
                    <path d="M185.910476,37.59375 L180.567619,37.59375 L180.190476,34.921875 C178.330952,37.5260417 174.920952,38.3489583 171.882857,38.3489583 C164.848095,38.3489583 160.285714,32.8125 160.285714,26.078125 C160.285714,18.6770833 164.905714,12.3697917 173.658571,12.3697917 C179.310476,12.3697917 184.82619,13.9322917 186.03619,20.9739583 L179.142857,20.9739583 C178.451429,18.296875 177.047619,16.8958333 174.177143,16.8958333 C170.180476,16.8958333 167.975238,19.359375 167.975238,25.5677083 C167.975238,31.7760417 170.52619,34.03125 173.422857,34.03125 C176.141429,34.03125 178.074286,32.5208333 178.729048,29.8177083 L174.659048,29.8177083 L174.659048,26.0416667 L185.9,26.0416667 L185.910476,37.59375 Z" id="Shape" fill="#70C7AF"></path>
                    <polygon id="Shape" fill="#70C7AF" points="189.456667 21.484375 196.072381 21.484375 196.072381 37.59375 189.456667 37.59375"></polygon>
                    <path d="M199.519048,26.078125 C200.205238,21.796875 203.960952,20.8020833 207.858095,20.8020833 C214.960952,20.8020833 216.925238,23.4427083 216.925238,27.5729167 L216.925238,33.3802083 C216.925238,35.1614583 217.16619,36.6354167 218.061905,37.59375 L211.372857,37.59375 C211.037482,36.8878392 210.872469,36.1138293 210.890952,35.3333333 L210.822857,35.3333333 C209.445238,37.5260417 206.684762,38.28125 205.134286,38.28125 C202.965714,38.28125 198.895714,37.4583333 198.895714,33.2447917 C198.895714,29.6458333 201.032857,27.9322917 206.548571,27.9322917 C209.581429,27.9322917 210.859524,27.109375 210.859524,26.0104167 C210.859524,24.5052083 209.717619,24.0260417 208.408095,24.0260417 C207.098571,24.0260417 205.930476,24.546875 205.857143,26.078125 L199.519048,26.078125 Z M210.822857,29.203125 C209.408571,30.6770833 205.375238,30.1302083 205.375238,32.8489583 C205.391383,33.4100508 205.634557,33.9409248 206.049677,34.3213325 C206.464798,34.7017402 207.016737,34.8994907 207.580476,34.8697917 C209.235714,34.8697917 210.545238,33.7395833 210.613333,32.5729167 L210.822857,29.203125 Z" id="Shape" fill="#70C7AF"></path>
                    <path d="M220.57619,37.59375 L220.57619,21.484375 L227.087143,21.484375 L227.087143,24.2291667 L227.155238,24.2291667 C228.124286,21.5572917 230.434286,20.8020833 232.812381,20.8020833 C234.362269,20.7768382 235.857015,21.3735902 236.958996,22.4575495 C238.060977,23.5415087 238.677234,25.0212356 238.668571,26.5625 L238.668662,37.59375 L232.047619,37.59375 L232.047619,27.9635417 C232.047619,26.2864583 231.324762,25.53125 229.842381,25.53125 C228.309795,25.5988209 227.121601,26.8874558 227.186667,28.4114583 L227.186667,37.59375 L220.57619,37.59375 Z" id="Shape" fill="#70C7AF"></path>
                    <path d="M242.251429,21.484375 L242.251429,16.4166667 L248.835714,16.4166667 L248.835714,21.484375 L252.502381,21.484375 L252.502381,25.8072917 L248.835714,25.8072917 L248.835714,32.0572917 C248.835714,33.2552083 249.422381,33.8072917 250.868095,33.8072917 C251.304453,33.8341128 251.741285,33.7629078 252.14619,33.5989583 L252.14619,37.5729167 C250.807928,38.0720099 249.384291,38.3055753 247.955714,38.2604167 C244.75,38.2604167 242.235714,37.21875 242.235714,33.8385417 L242.235714,25.8072917 L240.061905,25.8072917 L240.061905,21.484375 L242.251429,21.484375 Z" id="Shape" fill="#70C7AF"></path>
                    <ellipse id="Oval" fill="#70C7AF" cx="192.908571" cy="16.2864583" rx="3.55142857" ry="3.53125"></ellipse>
                </g>
            </g>
        </g>
    </g>
</svg>