<svg width="378px" height="111px" viewBox="0 0 378 111" version="1.1" xmlns="http://www.w3.org/2000/svg" xmlns:xlink="http://www.w3.org/1999/xlink">
    <g id="Welcome" stroke="none" stroke-width="1" fill="none" fill-rule="evenodd">
        <g id="3.0-Work" transform="translate(-60.000000, -60.000000)" fill-rule="nonzero">
            <g id="Giant-logo-RGB" transform="translate(60.000000, 60.000000)">
                <g id="cs-logo" transform="translate(7.791667, 124.666667)" fill="#FFFFFF">
                    <path d="M14.45,6.44583333 C13.6708333,4.10833333 12.0416667,2.90416667 9.84583333,2.975 C7.08333333,2.975 4.0375,5.45416667 4.0375,10.0583333 C4.0375,14.5208333 7.08333333,17.1416667 10.2,17.1416667 C12.8916667,17.1416667 14.1666667,15.6541667 14.875,13.0333333 L18.3458333,13.0333333 C17.7791667,17.1416667 14.2375,19.975 10.2,19.975 C4.74583333,19.975 0.566666667,15.8666667 0.566666667,10.1291667 C0.566666667,4.39166667 4.74583333,0.283333333 10.2,0.283333333 C13.9541667,0.283333333 17.0708333,2.83333333 18.0625,6.5875 L14.45,6.5875 L14.45,6.44583333 Z" id="Shape"></path>
                    <path d="M27.6958333,19.2666667 L27.6958333,0.708333333 L35.9125,0.708333333 C39.1708333,0.708333333 41.4375,2.125 41.4375,5.7375 C41.4375,8.5 39.8791667,9.63333333 37.5416667,10.0583333 L37.5416667,10.1291667 C40.0916667,10.2 41.0833333,11.6166667 41.0833333,13.9541667 L41.0833333,16.7875 C41.0833333,17.85 41.3666667,18.5583333 42.1458333,19.3375 L38.1083333,19.3375 C37.5416667,18.5583333 37.6125,17.4958333 37.6125,16.8583333 L37.6125,14.45 C37.6125,11.7583333 37.4,11.5458333 34.3541667,11.5458333 L30.8833333,11.5458333 L30.8833333,19.2666667 L27.6958333,19.2666667 Z M31.025,8.7125 L34.5666667,8.7125 C36.9041667,8.7125 38.0375,7.72083333 38.0375,6.1625 C38.0375,4.4625 36.8333333,3.54166667 35.1333333,3.54166667 L30.9541667,3.54166667 L30.9541667,8.7125 L31.025,8.7125 Z" id="Shape"></path>
                    <polygon id="Shape" points="51.7083333 19.2666667 51.7083333 0.708333333 63.6791667 0.708333333 63.6791667 3.4 54.9666667 3.4 54.9666667 8.21666667 62.475 8.21666667 62.475 10.9083333 54.9666667 10.9083333 54.9666667 16.575 63.8208333 16.575 63.8208333 19.2666667 51.7083333 19.2666667"></polygon>
                    <path d="M79.1208333,0.708333333 L82.45,0.708333333 L89.6041667,19.3375 L85.9916667,19.3375 L84.4333333,15.1583333 L76.925,15.1583333 L75.2958333,19.3375 L71.6833333,19.3375 L79.1208333,0.708333333 Z M77.9875,12.3958333 L83.4416667,12.3958333 L80.8208333,4.81666667 L80.75,4.81666667 L77.9875,12.3958333 Z" id="Shape"></path>
                    <polygon id="Shape" points="94.775 0.708333333 108.375 0.708333333 108.375 3.54166667 103.204167 3.54166667 103.204167 19.3375 99.9458333 19.3375 99.9458333 3.54166667 94.775 3.54166667 94.775 0.708333333"></polygon>
                    <polygon id="Shape" points="117.229167 19.2666667 117.229167 0.708333333 120.4875 0.708333333 120.4875 19.3375 117.229167 19.3375"></polygon>
                    <polygon id="Shape" points="136.354167 19.2666667 129.058333 0.708333333 132.6 0.708333333 138.054167 14.8041667 143.225 0.708333333 146.766667 0.708333333 139.754167 19.3375 136.354167 19.3375"></polygon>
                    <polygon id="Shape" points="154.9125 19.2666667 154.9125 0.708333333 166.883333 0.708333333 166.883333 3.4 158.170833 3.4 158.170833 8.21666667 165.679167 8.21666667 165.679167 10.9083333 158.170833 10.9083333 158.170833 16.575 167.025 16.575 167.025 19.2666667 154.9125 19.2666667"></polygon>
                    <path d="M193.870833,13.175 C193.870833,15.8666667 195.854167,17 198.191667,17 C199.9625,16.9291667 202.3,16.2208333 202.3,14.0958333 C202.3,9.5625 190.966667,13.1041667 190.966667,5.7375 C190.966667,1.7 194.4375,0.0708333333 198.05,0.0708333333 C201.6625,0.0708333333 205.275,1.55833333 205.558333,6.44583333 L202.0875,6.44583333 C202.0875,3.825 200.316667,2.90416667 198.120833,2.90416667 C195.5,2.90416667 194.366667,4.0375 194.366667,5.45416667 C194.366667,9.5625 205.7,6.1625 205.7,13.7416667 C205.7,17.85 202.229167,19.8333333 197.979167,19.8333333 C193.658333,19.8333333 190.470833,17.85 190.4,13.175 L193.870833,13.175 Z" id="Shape"></path>
                    <polygon id="Shape" points="213.5625 0.708333333 227.1625 0.708333333 227.1625 3.54166667 221.991667 3.54166667 221.991667 19.3375 218.733333 19.3375 218.733333 3.54166667 213.5625 3.54166667 213.5625 0.708333333"></polygon>
                    <path d="M235.875,19.2666667 L235.875,0.708333333 L244.091667,0.708333333 C247.35,0.708333333 249.616667,2.125 249.616667,5.7375 C249.616667,8.5 248.058333,9.63333333 245.720833,10.0583333 L245.720833,10.1291667 C248.270833,10.2 249.2625,11.6166667 249.2625,13.9541667 L249.2625,16.7875 C249.2625,17.85 249.545833,18.5583333 250.325,19.3375 L246.2875,19.3375 C245.720833,18.5583333 245.791667,17.4958333 245.791667,16.8583333 L245.791667,14.45 C245.791667,11.7583333 245.579167,11.5458333 242.533333,11.5458333 L239.0625,11.5458333 L239.0625,19.2666667 L235.875,19.2666667 Z M239.133333,8.7125 L242.675,8.7125 C245.0125,8.7125 246.145833,7.72083333 246.145833,6.1625 C246.145833,4.4625 244.941667,3.54166667 243.241667,3.54166667 L239.0625,3.54166667 L239.0625,8.7125 L239.133333,8.7125 Z" id="Shape"></path>
                    <path d="M265.2,0.708333333 L268.529167,0.708333333 L275.683333,19.3375 L272.070833,19.3375 L270.5125,15.1583333 L263.004167,15.1583333 L261.375,19.3375 L257.7625,19.3375 L265.2,0.708333333 Z M264.066667,12.3958333 L269.520833,12.3958333 L266.9,4.81666667 L266.829167,4.81666667 L264.066667,12.3958333 Z" id="Shape"></path>
                    <polygon id="Shape" points="281.1375 0.708333333 294.7375 0.708333333 294.7375 3.54166667 289.566667 3.54166667 289.566667 19.3375 286.308333 19.3375 286.308333 3.54166667 281.1375 3.54166667 281.1375 0.708333333"></polygon>
                    <polygon id="Shape" points="303.45 19.2666667 303.45 0.708333333 315.420833 0.708333333 315.420833 3.4 306.708333 3.4 306.708333 8.21666667 314.216667 8.21666667 314.216667 10.9083333 306.708333 10.9083333 306.708333 16.575 315.5625 16.575 315.5625 19.2666667 303.45 19.2666667"></polygon>
                    <path d="M337.875,6.44583333 C337.379167,3.96666667 335.679167,2.83333333 333.129167,2.83333333 C329.870833,2.83333333 327.4625,5.3125 327.4625,9.9875 C327.4625,14.6625 329.8,17.1416667 333.129167,17.1416667 C335.820833,17.1416667 337.45,15.5833333 338.370833,13.1041667 L334.6875,13.1041667 L334.6875,10.4125 L341.416667,10.4125 L341.416667,19.2666667 L339.3625,19.2666667 L339.008333,16.4333333 L338.9375,16.4333333 C337.6625,18.8416667 335.466667,19.8333333 332.420833,19.8333333 C328.454167,19.8333333 323.85,16.5041667 323.85,10.4833333 C323.85,3.96666667 327.4625,0.141666667 333.4125,0.141666667 C337.520833,0.141666667 340.566667,2.26666667 341.133333,6.51666667 L337.875,6.51666667 L337.875,6.44583333 Z" id="Shape"></path>
                    <polygon id="Shape" points="355.229167 12.5375 348.429167 0.708333333 352.183333 0.708333333 356.929167 9.35 361.4625 0.708333333 365.216667 0.708333333 358.558333 12.5375 358.558333 19.2666667 355.3 19.2666667 355.3 12.5375"></polygon>
                </g>
                <g id="giant-logo" fill="#FFFFFF">
                    <path d="M114.183333,112.979167 L90.3833333,112.979167 L88.6833333,101.008333 C80.3958333,112.695833 65.1666667,116.379167 51.7083333,116.379167 C20.4,116.379167 -1.42108547e-14,91.6583333 -1.42108547e-14,61.4125 C-4.14483263e-15,28.2625 20.5416667,0 59.5708333,0 C84.7166667,0 109.295833,6.94166667 114.679167,38.5333333 L84.15,38.5333333 C81.1041667,26.5625 74.8,20.2583333 62.05,20.2583333 C44.2708333,20.2583333 34.425,31.3083333 34.425,59.075 C34.425,86.8416667 45.7583333,96.9708333 58.65,96.9708333 C70.7625,96.9708333 79.4041667,90.2416667 82.3083333,78.0583333 L64.175,78.0583333 L64.175,61.2708333 L114.254167,61.2708333 L114.254167,112.979167 L114.183333,112.979167 Z" id="Shape"></path>
                    <path d="M153.920833,61.4125 C156.966667,42.2166667 173.754167,37.7541667 191.0375,37.7541667 C222.629167,37.7541667 231.4125,49.5833333 231.4125,68 L231.4125,94.0666667 C231.4125,102.070833 232.475,108.658333 236.5125,112.979167 L206.7625,112.979167 C205.204167,110.5 204.920833,107.170833 204.6375,102.85 L204.354167,102.85 C198.191667,112.695833 185.9375,116.025 178.995833,116.025 C169.291667,116.025 151.229167,112.341667 151.229167,93.4291667 C151.229167,77.2791667 160.720833,69.6291667 185.3,69.6291667 C198.829167,69.6291667 204.495833,65.9458333 204.495833,61.0583333 C204.495833,54.3291667 199.466667,52.1333333 193.5875,52.1333333 C187.425,52.1333333 182.5375,54.6125 182.254167,61.3416667 L153.920833,61.3416667 L153.920833,61.4125 Z M204.283333,75.3666667 C197.979167,81.9541667 180.058333,79.475 180.058333,91.6583333 C180.058333,97.325 184.945833,100.725 189.904167,100.725 C197.270833,100.725 203.079167,95.6958333 203.433333,90.4541667 L204.283333,75.3666667 Z" id="Shape"></path>
                    <path d="M237.575,112.979167 L237.575,40.8708333 L266.616667,40.8708333 L266.616667,53.125 L266.9,53.125 C271.220833,41.1541667 281.491667,37.7541667 292.045833,37.7541667 C304.158333,37.7541667 317.545833,46.0416667 318.1125,63.5375 L318.1125,112.979167 L288.645833,112.979167 L288.645833,69.8416667 C288.645833,62.3333333 285.3875,58.9333333 278.8,58.9333333 C271.858333,58.9333333 266.970833,65.0958333 266.970833,71.825 L266.970833,112.979167 L237.575,112.979167 Z" id="Shape"></path>
                    <path d="M328.383333,40.8708333 L328.383333,18.1333333 L357.708333,18.1333333 L357.708333,40.8708333 L374,40.8708333 L374,60.2083333 L357.708333,60.2083333 L357.708333,88.3291667 C357.708333,93.7125 360.329167,96.1916667 366.775,96.1916667 C369.254167,96.1916667 370.6,96.05 372.441667,95.2708333 L372.441667,113.05 C364.791667,115.529167 361.675,116.095833 353.741667,116.095833 C339.433333,116.095833 328.241667,111.491667 328.241667,96.2625 L328.241667,60.2083333 L318.5375,60.2083333 L318.5375,40.8708333 L328.383333,40.8708333 Z" id="Shape"></path>
                    <rect id="Rectangle-path" x="118.858333" y="40.8708333" width="29.4666667" height="72.1791667"></rect>
                    <circle id="Oval" cx="133.6625" cy="17.9208333" r="16.2916667"></circle>
                </g>
            </g>
        </g>
    </g>
</svg>
