<?xml version="1.0" encoding="UTF-8"?>
<svg width="85px" height="42px" viewBox="0 0 85 42" version="1.1" xmlns="http://www.w3.org/2000/svg" xmlns:xlink="http://www.w3.org/1999/xlink">
    <!-- Generator: Sketch 57.1 (83088) - https://sketch.com -->
    <title>palforzia_logo</title>
    <desc>Created with Sketch.</desc>
    <g id="Symbols" stroke="none" stroke-width="1" fill="none" fill-rule="evenodd">
        <g id="mobile-/-header_navigation" transform="translate(-23.000000, -39.000000)">
            <g id="palforzia_logo" transform="translate(21.000000, 38.000000)">
                <g id="Group-121" transform="translate(2.000000, 1.000000)">
                    <g id="Group-119">
                        <path d="M42.4582253,1.71635172 C42.4582253,1.17122069 42.015529,0.729206897 41.4695563,0.729206897 C40.9235836,0.729206897 40.4808874,1.17122069 40.4808874,1.71635172 C40.4808874,2.26148276 40.9235836,2.70349655 41.4695563,2.70349655 C42.015529,2.70349655 42.4582253,2.26148276 42.4582253,1.71635172" id="Fill-1" fill="#51307D"></path>
                        <path d="M47.0321536,1.72046483 C47.0321536,1.12029931 46.5444915,0.633678621 45.9433993,0.633678621 C45.3425973,0.633678621 44.8549352,1.12029931 44.8549352,1.72046483 C44.8549352,2.32063034 45.3425973,2.80725103 45.9433993,2.80725103 C46.5444915,2.80725103 47.0321536,2.32063034 47.0321536,1.72046483" id="Fill-3" fill="#4F5DBF"></path>
                        <path d="M52.4355717,1.72469379 C52.4355717,0.98085931 51.8318686,0.378086897 51.0868857,0.378086897 C50.3419027,0.378086897 49.7379096,0.98085931 49.7379096,1.72469379 C49.7379096,2.46852828 50.3419027,3.07130069 51.0868857,3.07130069 C51.8318686,3.07130069 52.4355717,2.46852828 52.4355717,1.72469379" id="Fill-5" fill="#4C7ED9"></path>
                        <path d="M58.1985427,1.7288069 C58.1985427,0.876931034 57.5069386,0.186393103 56.6537474,0.186393103 C55.8002662,0.186393103 55.1089522,0.876931034 55.1089522,1.7288069 C55.1089522,2.58068276 55.8002662,3.27122069 56.6537474,3.27122069 C57.5069386,3.27122069 58.1985427,2.58068276 58.1985427,1.7288069" id="Fill-7" fill="#5E8FAB"></path>
                        <path d="M64.2238242,1.71226759 C64.2238242,0.793481379 63.4776809,0.0484882759 62.5574761,0.0484882759 C61.6369812,0.0484882759 60.891128,0.793481379 60.891128,1.71226759 C60.891128,2.63105379 61.6369812,3.3760469 62.5574761,3.3760469 C63.4776809,3.3760469 64.2238242,2.63105379 64.2238242,1.71226759" id="Fill-9" fill="#63B0B6"></path>
                        <path d="M70.8437577,1.73292 C70.8437577,0.77589931 70.0665734,0.000202758621 69.1083652,0.000202758621 C68.1495768,0.000202758621 67.3726826,0.77589931 67.3726826,1.73292 C67.3726826,2.68994069 68.1495768,3.46563724 69.1083652,3.46563724 C70.0665734,3.46563724 70.8437577,2.68994069 70.8437577,1.73292" id="Fill-11" fill="#49C5B1"></path>
                        <path d="M3.86129181,8.89959724 L6.95088225,8.89959724 C8.50641126,8.89959724 10.0619403,8.07002483 10.0619403,5.53814897 C10.0619403,4.41052138 9.48666724,3.72983172 8.0376058,3.72983172 L4.75596758,3.72983172 L3.86129181,8.89959724 Z M2.62545563,1.51715586 L8.50641126,1.51715586 C11.4680666,1.51715586 12.7039027,2.89996966 12.7039027,5.11264552 C12.7039027,9.04848 10.2110529,11.1122731 6.652657,11.1122731 L3.47777645,11.1122731 L2.54016553,16.4097766 L0.00467064846,16.4097766 L2.62545563,1.51715586 Z" id="Fill-13" fill="#51307D"></path>
                        <path d="M14.7056962,12.4313338 C14.4712935,13.7715683 15.2809693,14.5799959 16.5168055,14.5799959 C17.9020444,14.5799959 19.0737679,13.6864097 19.3508157,12.1547131 L19.8196212,9.53796828 C20.0752014,8.15515448 19.116413,7.2827131 17.6888191,7.2827131 C16.3038703,7.2827131 15.4941945,7.98483724 15.2597918,9.3039269 L14.7056962,12.4313338 Z M22.9092116,5.45325103 L21.5242628,13.1971821 C21.3751502,13.9841752 21.4604403,14.4736924 22.2060034,14.4736924 C22.4404061,14.4736924 22.760099,14.4311131 23.1650819,14.3248097 L22.8239215,16.2394303 C22.0995358,16.4949062 21.4389727,16.6223545 20.9063447,16.6223545 C19.9049113,16.6223545 19.3081706,16.1757062 19.116413,15.2395407 C18.2852696,16.1545614 17.1135461,16.6223545 15.7285973,16.6223545 C13.2781024,16.6223545 11.871686,15.0480786 12.3616689,12.2613062 L12.851942,9.47424414 C13.3419249,6.68689241 14.982744,5.24035448 17.4332389,5.24035448 C18.8396553,5.24035448 19.9475563,5.70843724 20.5228294,6.6443131 L21.0766348,5.45325103 L22.9092116,5.45325103 Z" id="Fill-15" fill="#51307D"></path>
                        <polygon id="Fill-17" fill="#51307D" points="26.8609573 0.666206897 29.2261621 0.666206897 26.4559744 16.4098345 24.0910597 16.4098345"></polygon>
                        <path d="M34.1852014,5.45316414 L37.2321468,5.45316414 L36.870099,7.49552276 L33.8228635,7.49552276 L31.5005939,20.6646952 L29.1353891,20.6646952 L31.4364812,7.49552276 L29.3056792,7.49552276 L29.6680171,5.45316414 L31.7988191,5.45316414 L31.9479317,4.58072276 C32.5020273,1.53847448 33.7163959,-0.0995255172 38.0844676,0.623743448 L37.7435973,2.55950897 C35.3357474,2.32575724 34.6751843,2.66610207 34.3557816,4.47441931 L34.1852014,5.45316414 Z" id="Fill-19" fill="#51307D"></path>
                        <path d="M44.2688123,9.30381103 C44.5246826,7.92099724 43.7361843,7.28259724 42.3512355,7.28259724 C40.9448191,7.28259724 39.9433857,7.94214207 39.6875154,9.30381103 L39.1125324,12.537811 C38.8566621,13.9206248 39.6663379,14.5801697 41.0301092,14.5801697 C42.4365256,14.5801697 43.4591365,13.8780455 43.6938294,12.5163766 L44.2688123,9.30381103 Z M46.1013891,12.346349 C45.6114061,15.1545559 43.6720717,16.6225283 40.8383515,16.6225283 C38.0469863,16.6225283 36.2785222,15.1971352 36.7685051,12.3889283 L37.2799556,9.47412828 C37.7699386,6.66563172 39.7089829,5.24023862 42.5429932,5.24023862 C45.3343584,5.24023862 47.1031126,6.66563172 46.6128396,9.47412828 L46.1013891,12.346349 Z" id="Fill-21" fill="#51307D"></path>
                        <path d="M49.1946058,16.4097186 L46.8296911,16.4097186 L48.7472679,5.45322207 L50.5583771,5.45322207 L50.7077799,6.75087724 C51.900971,5.53809103 52.6169437,5.45322207 55.2998106,5.45322207 L54.9162952,7.49558069 C52.3845717,7.49558069 50.6863123,7.92108414 50.4092645,9.49536 L49.1946058,16.4097186 Z" id="Fill-23" fill="#51307D"></path>
                        <polygon id="Fill-25" fill="#51307D" points="62.2670546 7.49546483 56.343744 7.49546483 56.7057918 5.45310621 65.5701604 5.45310621 65.2078225 7.49546483 58.0907406 14.3675338 63.9931638 14.3675338 63.6522935 16.4096028 54.788215 16.4096028 55.1505529 14.3675338"></polygon>
                        <polygon id="Fill-27" fill="#51307D" points="67.3803993 5.45316414 69.7670717 5.45316414 67.8277372 16.4096607 65.4628225 16.4096607"></polygon>
                        <path d="M72.306744,12.4313338 C72.0723413,13.7715683 72.8820171,14.5799959 74.1181433,14.5799959 C75.5030922,14.5799959 76.6751058,13.6864097 76.9521536,12.1547131 L77.420959,9.53796828 C77.6765392,8.15515448 76.7174608,7.2827131 75.2898669,7.2827131 C73.9049181,7.2827131 73.0952423,7.98483724 72.8608396,9.3039269 L72.306744,12.4313338 Z M80.5102594,5.45325103 L79.1253106,13.1971821 C78.976198,13.9841752 79.0614881,14.4736924 79.8070512,14.4736924 C80.0414539,14.4736924 80.3614369,14.4311131 80.7661297,14.3248097 L80.4252594,16.2394303 C79.7005836,16.4949062 79.0400205,16.6223545 78.5073925,16.6223545 C77.505959,16.6223545 76.9092184,16.1757062 76.7174608,15.2395407 C75.8866075,16.1545614 74.7145939,16.6223545 73.3296451,16.6223545 C70.8791502,16.6223545 69.4727338,15.0480786 69.9630068,12.2613062 L70.4529898,9.47424414 C70.9432628,6.68689241 72.5837918,5.24035448 75.0339966,5.24035448 C76.440413,5.24035448 77.5486041,5.70843724 78.1238771,6.6443131 L78.6779727,5.45325103 L80.5102594,5.45325103 Z" id="Fill-29" fill="#51307D"></path>
                        <polygon id="Fill-31" fill="#51307D" points="81.5384693 14.3246938 83.036558 14.3246938 83.0208925 14.5216593 82.3858584 14.5216593 82.2500904 16.2398938 82.0217799 16.2398938 82.1578379 14.5216593 81.5228038 14.5216593"></polygon>
                        <polygon id="Fill-33" fill="#51307D" points="84.5955973 14.7706469 83.9048635 15.8895848 83.3939932 14.7706469 83.2779522 16.2397779 83.0499317 16.2397779 83.2013652 14.3245779 83.4212628 14.3245779 83.9390956 15.4574193 84.6362116 14.3245779 84.8558191 14.3245779 84.7046758 16.2397779 84.4795563 16.2397779"></polygon>
                        <path d="M3.53846587,25.9650662 C3.73515529,24.9449007 3.46448976,24.2207628 2.82887543,24.2207628 C2.15931911,24.2207628 1.5747628,24.8678524 1.37459215,25.9320455 L1.0891314,27.4677972 C0.898244027,28.4992593 1.24346587,29.1466386 1.91998464,29.1466386 C2.57619625,29.1466386 3.04500171,28.5763076 3.23240785,27.5885834 L3.53846587,25.9650662 Z M3.53498464,27.5665697 C3.29681058,28.8503214 2.69339761,29.5634524 1.88691297,29.5634524 C1.35399488,29.5634524 0.99571843,29.2564179 0.862851536,28.6860869 L0.300633106,31.6481007 L8.70307167e-05,31.6481007 L1.4659744,23.9134386 L1.70501877,23.9134386 L1.59565017,24.6923214 C1.9275273,24.1219903 2.40387543,23.8036593 2.93708362,23.8036593 C3.74356826,23.8036593 4.0763157,24.6923214 3.83088908,25.98708 L3.53498464,27.5665697 Z" id="Fill-35" fill="#000000"></path>
                        <path d="M4.89391126,26.370989 L7.05343345,26.370989 L7.1686041,25.7783545 C7.36906485,24.7141614 7.04589078,24.220589 6.39664164,24.220589 C5.74043003,24.220589 5.20083959,24.7361752 5.00908191,25.7783545 L4.89391126,26.370989 Z M7.09201706,27.7862441 C6.86167577,28.8834579 6.24752901,29.5632786 5.4204471,29.5632786 C4.53882594,29.5632786 4.13732423,28.8504372 4.3763686,27.5559683 L4.70650512,25.8003683 C4.96179522,24.4728786 5.61626621,23.8037752 6.45002048,23.8037752 C7.27681229,23.8037752 7.7160273,24.4728786 7.4610273,25.8003683 L7.27362116,26.7878028 L4.81993515,26.7878028 L4.66850171,27.5776924 C4.48689761,28.5761338 4.74944027,29.1467545 5.46048123,29.1467545 C6.13003754,29.1467545 6.62524232,28.586851 6.79118089,27.7862441 L7.09201706,27.7862441 Z" id="Fill-37" fill="#000000"></path>
                        <path d="M8.31862799,27.4023352 C8.12948123,28.4114938 8.3926041,29.1466386 9.02821843,29.1466386 C9.7047372,29.1466386 10.2826212,28.4992593 10.4836621,27.4240593 L10.7749249,25.8993145 C10.9733549,24.8568455 10.6139181,24.2207628 9.94407167,24.2207628 C9.28756997,24.2207628 8.81209215,24.7910938 8.62468601,25.7785283 L8.31862799,27.4023352 Z M8.32239932,25.8005421 C8.56115358,24.5057834 9.16340614,23.8036593 9.96989078,23.8036593 C10.5167338,23.8036593 10.8929966,24.1437145 11.0096177,24.7470662 L11.2051468,23.9134386 L11.4511536,23.9134386 L10.701529,27.8631766 C10.5503857,28.6527766 10.5129625,29.1246248 10.8271433,29.1246248 C10.9162048,29.1246248 11.027314,29.1029007 11.1703345,29.0258524 L11.1047713,29.4209421 C10.9260683,29.5197145 10.772314,29.5634524 10.6493106,29.5634524 C10.3145324,29.5634524 10.2330137,29.2123903 10.2855222,28.6310524 C9.95074403,29.2344041 9.46685324,29.5634524 8.92668259,29.5634524 C8.1135256,29.5634524 7.78135836,28.6637834 8.02649488,27.3803214 L8.32239932,25.8005421 Z" id="Fill-39" fill="#000000"></path>
                        <path d="M12.8523191,23.9134386 L13.0919437,23.9134386 L12.982285,24.6923214 C13.3153225,24.1109834 13.7838379,23.8036593 14.3100836,23.8036593 C15.1098959,23.8036593 15.5192304,24.4180179 15.26307,25.7565145 L14.5674044,29.4539628 L14.2665683,29.4539628 L14.9718072,25.7237834 C15.1702372,24.6813145 14.8444522,24.2207628 14.209128,24.2207628 C13.5595887,24.2207628 12.979384,24.8131076 12.7792133,25.8773007 L12.1070461,29.4539628 L11.8062099,29.4539628 L12.8523191,23.9134386 Z" id="Fill-41" fill="#000000"></path>
                        <path d="M18.306186,29.4539628 L18.0668515,29.4539628 L18.1765102,28.67508 C17.8431826,29.2564179 17.3749573,29.5634524 16.8487116,29.5634524 C16.0491894,29.5634524 15.6395648,28.9490938 15.8957253,27.6108869 L16.5913908,23.9134386 L16.892227,23.9134386 L16.186698,27.6436179 C15.988558,28.6860869 16.314343,29.1466386 16.9499573,29.1466386 C17.5989164,29.1466386 18.1791212,28.5545834 18.3792918,27.4901007 L19.051459,23.9134386 L19.3522952,23.9134386 L18.306186,29.4539628 Z" id="Fill-43" fill="#000000"></path>
                        <path d="M20.3400358,27.5010497 C20.0847457,28.8285393 20.1302918,29.3771462 21.2086024,29.0478083 L21.142459,29.4539048 C19.7543191,29.8927324 19.7580904,28.9820566 20.051384,27.4350083 L20.6385512,24.3304841 L19.8868959,24.3304841 L19.9678345,23.9133807 L20.7191997,23.9133807 L21.0974932,21.8950634 L21.4232782,21.7519738 L21.0200358,23.9133807 L22.1888584,23.9133807 L22.1079198,24.3304841 L20.9390973,24.3304841 L20.3400358,27.5010497 Z" id="Fill-45" fill="#000000"></path>
                        <path d="M23.9657355,30.0488276 C23.5929539,29.2467724 23.4020666,28.2463034 23.49693,27.0477103 C23.6625785,24.9523448 24.5259232,22.8668276 25.9413328,21.328469 L26.3062816,21.328469 C24.9964693,22.7347448 24.0205648,24.8393793 23.8508549,26.9912276 C23.7548311,28.1990897 23.9433976,29.2279448 24.3228515,30.0488276 L23.9657355,30.0488276 Z" id="Fill-47" fill="#000000"></path>
                        <path d="M26.1474505,26.8645903 L28.3548396,26.8645903 L28.1065119,22.3115007 L26.1474505,26.8645903 Z M28.8129113,29.4538179 L28.4917679,29.4538179 L28.3748567,27.3034179 L25.9554027,27.3034179 L25.0334573,29.4538179 L24.6917167,29.4538179 L28.0055563,21.7741903 L28.3954539,21.7741903 L28.8129113,29.4538179 Z" id="Fill-49" fill="#000000"></path>
                        <path d="M30.3378055,23.9134386 L30.57743,23.9134386 L30.4576177,24.736349 C30.9078567,23.9681834 31.5730614,23.6828731 32.0691365,23.8917145 L31.9803652,24.3192455 C31.2086928,24.055949 30.4796655,24.7143352 30.2664403,25.8552869 L29.5925324,29.4539628 L29.2916962,29.4539628 L30.3378055,23.9134386 Z" id="Fill-51" fill="#000000"></path>
                        <path d="M32.1880495,27.4023352 C31.9989027,28.4114938 32.2620256,29.1466386 32.8976399,29.1466386 C33.5741587,29.1466386 34.1520427,28.4992593 34.3530836,27.4240593 L34.6443464,25.8993145 C34.8427765,24.8568455 34.4833396,24.2207628 33.8134932,24.2207628 C33.1572816,24.2207628 32.6812235,24.7910938 32.4941075,25.7785283 L32.1880495,27.4023352 Z M32.1918208,25.8005421 C32.4305751,24.5057834 33.0328276,23.8036593 33.8393123,23.8036593 C34.3861553,23.8036593 34.7624181,24.1437145 34.8790392,24.7470662 L35.0745683,23.9134386 L35.3205751,23.9134386 L34.5709505,27.8631766 C34.4198072,28.6527766 34.382384,29.1246248 34.6965648,29.1246248 C34.7856263,29.1246248 34.8967355,29.1029007 35.039756,29.0258524 L34.9741928,29.4209421 C34.7954898,29.5197145 34.6417355,29.5634524 34.5187321,29.5634524 C34.1839539,29.5634524 34.1024352,29.2123903 34.1549437,28.6310524 C33.8201655,29.2344041 33.3362747,29.5634524 32.7963942,29.5634524 C31.9832372,29.5634524 31.6507799,28.6637834 31.8959164,27.3803214 L32.1918208,25.8005421 Z" id="Fill-53" fill="#000000"></path>
                        <path d="M38.6164863,27.6984786 C38.4026809,28.8504372 37.7719983,29.5632786 36.9312816,29.5632786 C36.0496604,29.5632786 35.6481587,28.8504372 35.8872031,27.5559683 L36.2179198,25.7893614 C36.4639266,24.4946028 37.099541,23.8037752 37.9814522,23.8037752 C38.8218788,23.8037752 39.2233805,24.5169062 39.0026126,25.6685752 L38.7087389,25.6685752 C38.8746775,24.7802028 38.5906672,24.220589 37.9277833,24.220589 C37.2237048,24.220589 36.7166058,24.758189 36.5204966,25.7676372 L36.1793362,27.5776924 C35.9968618,28.586851 36.2669471,29.1467545 36.9710256,29.1467545 C37.6339096,29.1467545 38.1566741,28.586851 38.3156502,27.6984786 L38.6164863,27.6984786 Z" id="Fill-55" fill="#000000"></path>
                        <path d="M41.5667986,29.4539628 L42.2720375,25.7237834 C42.4637952,24.6813145 42.1446826,24.2207628 41.5093584,24.2207628 C40.8598191,24.2207628 40.2796143,24.8133972 40.0794437,25.8773007 L39.4072765,29.4539628 L39.1064403,29.4539628 L40.6370205,21.3352179 L40.9375666,21.3352179 L40.3141365,24.6375766 C40.6445631,24.0892593 41.0979932,23.8036593 41.610314,23.8036593 C42.4101263,23.8036593 42.8197509,24.4180179 42.5633003,25.7565145 L41.8676348,29.4539628 L41.5667986,29.4539628 Z" id="Fill-57" fill="#000000"></path>
                        <path d="M44.2982577,21.6205283 L44.5921314,21.6205283 L44.392541,22.6737145 L44.0989573,22.6737145 L44.2982577,21.6205283 Z M43.8639744,23.9134386 L44.1648106,23.9134386 L43.1187014,29.4539628 L42.8175751,29.4539628 L43.8639744,23.9134386 Z" id="Fill-59" fill="#000000"></path>
                        <path d="M46.1989505,26.9743407 L45.4934215,26.7330579 C44.9671758,26.5575269 44.7142065,26.1294166 44.8363396,25.3618303 C44.9889334,24.3851131 45.5201109,23.8037752 46.4290017,23.8037752 C47.2833532,23.8037752 47.6015956,24.363389 47.3785068,25.5370717 L47.0779608,25.5370717 C47.2444795,24.6376924 47.0387969,24.220589 46.3689505,24.220589 C45.6785068,24.220589 45.265401,24.6043821 45.1493601,25.295789 C45.0408618,25.8881338 45.2218857,26.1954579 45.628029,26.327251 L46.3471928,26.5685338 C46.8792406,26.7547821 47.1325,27.1828924 47.0051451,27.9287545 C46.8473294,28.9712234 46.2334727,29.5632786 45.3382167,29.5632786 C44.4702304,29.5632786 44.0635068,29.0042441 44.2857253,27.8302717 L44.579599,27.8302717 C44.4130802,28.7299407 44.7081143,29.1467545 45.4052304,29.1467545 C46.0887116,29.1467545 46.5641894,28.7516648 46.6982167,28.0058028 C46.806715,27.4131683 46.6062543,27.0951269 46.1989505,26.9743407" id="Fill-61" fill="#000000"></path>
                        <path d="M51.5862389,29.4539628 L52.2914778,25.7237834 C52.4832355,24.6813145 52.1641229,24.2207628 51.5287986,24.2207628 C50.8792594,24.2207628 50.2990546,24.8133972 50.098884,25.8773007 L49.4267167,29.4539628 L49.1258805,29.4539628 L50.6564608,21.3352179 L50.9570068,21.3352179 L50.3335768,24.6375766 C50.6640034,24.0892593 51.1174334,23.8036593 51.6297543,23.8036593 C52.4295666,23.8036593 52.838901,24.4180179 52.5827406,25.7565145 L51.8870751,29.4539628 L51.5862389,29.4539628 Z" id="Fill-63" fill="#000000"></path>
                        <polygon id="Fill-65" fill="#000000" points="52.9302253 31.6481586 53.924116 29.4540207 53.9032287 29.4540207 53.507529 23.9134966 53.8153276 23.9134966 54.170413 28.9268483 56.4192867 23.9134966 56.7407201 23.9134966 53.272256 31.6481586"></polygon>
                        <path d="M59.5308959,25.9650662 C59.7281655,24.9449007 59.4572099,24.2207628 58.8215956,24.2207628 C58.1517491,24.2207628 57.5671928,24.8678524 57.3670222,25.9320455 L57.0815614,27.4677972 C56.8906741,28.4992593 57.2358959,29.1466386 57.9124147,29.1466386 C58.5686263,29.1466386 59.0374317,28.5763076 59.2248379,27.5885834 L59.5308959,25.9650662 Z M59.5274147,27.5665697 C59.2892406,28.8503214 58.6861177,29.5634524 57.8796331,29.5634524 C57.346715,29.5634524 56.9878584,29.2564179 56.8549915,28.6860869 L56.2930631,31.6481007 L55.9925171,31.6481007 L57.4578242,23.9134386 L57.6977389,23.9134386 L57.5880802,24.6923214 C57.9199573,24.1219903 58.3965956,23.8036593 58.9295137,23.8036593 C59.7359983,23.8036593 60.0687457,24.6923214 59.8233191,25.98708 L59.5274147,27.5665697 Z" id="Fill-67" fill="#000000"></path>
                        <path d="M63.1271502,25.7783834 C63.3273208,24.7141903 63.0044369,24.2206179 62.3551877,24.2206179 C61.6989761,24.2206179 61.1730205,24.7362041 60.967628,25.7783834 L60.6261775,27.5887283 C60.4257167,28.6529214 60.7491809,29.1467834 61.3981399,29.1467834 C62.0543515,29.1467834 62.5875597,28.6311972 62.7859898,27.5887283 L63.1271502,25.7783834 Z M63.0882765,27.5667145 C62.8318259,28.9055007 62.1857679,29.5633076 61.3517235,29.5633076 C60.5246416,29.5633076 60.0784642,28.8944938 60.3349147,27.5559972 L60.6650512,25.8003972 C60.9203413,24.4729076 61.5678498,23.8038041 62.4082765,23.8038041 C63.2353584,23.8038041 63.6745734,24.4729076 63.4195734,25.8003972 L63.0882765,27.5667145 Z" id="Fill-69" fill="#000000"></path>
                        <path d="M64.3651911,27.2376952 C64.1760444,28.2468538 64.4391672,28.9819986 65.0678191,28.9819986 C65.744628,28.9819986 66.3219317,28.334909 66.5229727,27.259709 L66.7808737,25.8991986 C66.9726314,24.8567297 66.6268294,24.2206469 65.9500205,24.2206469 C65.2938089,24.2206469 64.8183311,24.7912676 64.6375973,25.7784124 L64.3651911,27.2376952 Z M64.3283481,25.8004262 C64.5743549,24.5056676 65.1696451,23.8038331 65.9761297,23.8038331 C66.5296451,23.8038331 66.906198,24.1435986 67.022529,24.7469503 L67.2183481,23.9133228 L67.4573925,23.9133228 L66.3561638,29.7174331 C66.110157,31.0119021 65.4429215,31.7574745 64.5613003,31.7574745 C63.7205836,31.7574745 63.3463515,31.0446331 63.5607372,29.8926745 L63.8612833,29.8926745 C63.6953447,30.7813366 63.9723925,31.3409503 64.6355666,31.3409503 C65.3393549,31.3409503 65.8644403,30.7483159 66.0527167,29.7498745 L66.277256,28.5544676 C65.9468294,29.1027848 65.4861468,29.3988124 64.9665734,29.3988124 C64.1534164,29.3988124 63.8212491,28.4991434 64.0660956,27.2156814 L64.3283481,25.8004262 Z" id="Fill-71" fill="#000000"></path>
                        <path d="M68.056628,27.4023352 C67.8674812,28.4114938 68.1306041,29.1466386 68.7662184,29.1466386 C69.4427372,29.1466386 70.0206212,28.4992593 70.2216621,27.4240593 L70.5129249,25.8993145 C70.7113549,24.8568455 70.3519181,24.2207628 69.6820717,24.2207628 C69.0258601,24.2207628 68.549802,24.7910938 68.362686,25.7785283 L68.056628,27.4023352 Z M68.0603993,25.8005421 C68.2991536,24.5057834 68.9014061,23.8036593 69.7078908,23.8036593 C70.2547338,23.8036593 70.6309966,24.1437145 70.7476177,24.7470662 L70.9431468,23.9134386 L71.1891536,23.9134386 L70.439529,27.8631766 C70.2883857,28.6527766 70.2509625,29.1246248 70.5651433,29.1246248 C70.6542048,29.1246248 70.765314,29.1029007 70.9083345,29.0258524 L70.8427713,29.4209421 C70.6640683,29.5197145 70.510314,29.5634524 70.3873106,29.5634524 C70.0525324,29.5634524 69.9710137,29.2123903 70.0235222,28.6310524 C69.688744,29.2344041 69.2048532,29.5634524 68.6649727,29.5634524 C67.8518157,29.5634524 67.5193584,28.6637834 67.7644949,27.3803214 L68.0603993,25.8005421 Z" id="Fill-73" fill="#000000"></path>
                        <path d="M72.2733242,26.370989 L74.4331365,26.370989 L74.5483072,25.7783545 C74.7484778,24.7141614 74.4255939,24.220589 73.7763447,24.220589 C73.1201331,24.220589 72.5805427,24.7361752 72.3884949,25.7783545 L72.2733242,26.370989 Z M74.4717201,27.7862441 C74.2410887,28.8834579 73.6272321,29.5632786 72.8001502,29.5632786 C71.918529,29.5632786 71.5170273,28.8504372 71.7560717,27.5559683 L72.0859181,25.8003683 C72.3412082,24.4728786 72.9956792,23.8037752 73.8294334,23.8037752 C74.6565154,23.8037752 75.0957304,24.4728786 74.8407304,25.8003683 L74.6530341,26.7878028 L72.1993481,26.7878028 L72.0482048,27.5776924 C71.8666007,28.5761338 72.1291433,29.1467545 72.8398942,29.1467545 C73.5097406,29.1467545 74.0049454,28.586851 74.170884,27.7862441 L74.4717201,27.7862441 Z" id="Fill-75" fill="#000000"></path>
                        <path d="M75.6638959,27.4023352 C75.4747491,28.4114938 75.737872,29.1466386 76.3734863,29.1466386 C77.0500051,29.1466386 77.6278891,28.4992593 77.82893,27.4240593 L78.1201928,25.8993145 C78.3186229,24.8568455 77.959186,24.2207628 77.2893396,24.2207628 C76.633128,24.2207628 76.15707,24.7910938 75.9699539,25.7785283 L75.6638959,27.4023352 Z M75.6676672,25.8005421 C75.9064215,24.5057834 76.5086741,23.8036593 77.3151587,23.8036593 C77.8620017,23.8036593 78.2382645,24.1437145 78.3548857,24.7470662 L78.5504147,23.9134386 L78.7964215,23.9134386 L78.0467969,27.8631766 C77.8956536,28.6527766 77.8582304,29.1246248 78.1724113,29.1246248 C78.2614727,29.1246248 78.3725819,29.1029007 78.5156024,29.0258524 L78.4500392,29.4209421 C78.2713362,29.5197145 78.1175819,29.5634524 77.9945785,29.5634524 C77.6598003,29.5634524 77.5782816,29.2123903 77.6307901,28.6310524 C77.2960119,29.2344041 76.8121212,29.5634524 76.2722406,29.5634524 C75.4590836,29.5634524 75.1266263,28.6637834 75.3717628,27.3803214 L75.6676672,25.8005421 Z" id="Fill-77" fill="#000000"></path>
                        <path d="M80.8877116,21.3283241 C81.2683259,22.130669 81.4595034,23.1311379 81.3646399,24.3294414 C81.1989915,26.4248069 80.3356468,28.5106138 78.9121143,30.0486828 L78.5471655,30.0486828 C79.8569778,28.6429862 80.840715,26.5380621 81.0115853,24.3766552 C81.1064488,23.1783517 80.9100495,22.1494966 80.5305956,21.3283241 L80.8877116,21.3283241 Z" id="Fill-79" fill="#000000"></path>
                        <path d="M15.0965222,37.6415297 C14.9073754,38.6506883 15.1704983,39.3858331 15.8061126,39.3858331 C16.4826314,39.3858331 17.0605154,38.7384538 17.2615563,37.6632538 L17.5528191,36.138509 C17.7512491,35.09604 17.3915222,34.4599572 16.7219659,34.4599572 C16.0657543,34.4599572 15.5899863,35.0302883 15.4025802,36.0177228 L15.0965222,37.6415297 Z M15.1002935,36.0397366 C15.3390478,34.7449779 15.9413003,34.0428538 16.747785,34.0428538 C17.294628,34.0428538 17.6711809,34.382909 17.7872218,34.9862607 L17.9833311,34.1526331 L18.2293379,34.1526331 L17.4794232,38.102371 C17.3282799,38.891971 17.2908567,39.3638193 17.6053276,39.3638193 C17.694099,39.3638193 17.8052082,39.3420952 17.9482287,39.2650469 L17.8826655,39.6601366 C17.7039625,39.758909 17.5502082,39.8026469 17.4272048,39.8026469 C17.0924266,39.8026469 17.0109078,39.4515848 17.0634164,38.8702469 C16.7286382,39.4735986 16.2447474,39.8026469 15.7048669,39.8026469 C14.8914198,39.8026469 14.5592526,38.9029779 14.8043891,37.6195159 L15.1002935,36.0397366 Z" id="Fill-81" fill="#000000"></path>
                        <polygon id="Fill-83" fill="#000000" points="20.0053157 31.5743255 20.3058618 31.5743255 18.7755717 39.6930703 18.4747355 39.6930703"></polygon>
                        <polygon id="Fill-85" fill="#000000" points="21.6320358 31.5743255 21.9325819 31.5743255 20.4022918 39.6930703 20.1014556 39.6930703"></polygon>
                        <path d="M22.2864778,36.6101834 L24.446,36.6101834 L24.5611706,36.017549 C24.7613413,34.9533559 24.4384573,34.4597834 23.7892082,34.4597834 C23.1329966,34.4597834 22.5934061,34.9753697 22.4013584,36.017549 L22.2864778,36.6101834 Z M24.4845836,38.0254386 C24.2539522,39.1226524 23.6400956,39.8024731 22.8130137,39.8024731 C21.9313925,39.8024731 21.5298908,39.0896317 21.7689352,37.7951628 L22.0990717,36.0395628 C22.3540717,34.7120731 23.0085427,34.0429697 23.8422969,34.0429697 C24.6693788,34.0429697 25.1085939,34.7120731 24.8535939,36.0395628 L24.6658976,37.0269972 L22.2122116,37.0269972 L22.0610683,37.8168869 C21.8794642,38.8153283 22.1420068,39.385949 22.8527577,39.385949 C23.5226041,39.385949 24.0178089,38.8260455 24.1837474,38.0254386 L24.4845836,38.0254386 Z" id="Fill-87" fill="#000000"></path>
                        <path d="M26.2325956,34.1526331 L26.4722201,34.1526331 L26.3524078,34.9755434 C26.8026468,34.2073779 27.4678515,33.9220676 27.9639266,34.130909 L27.8751553,34.55844 C27.1034829,34.2951434 26.3744556,34.9535297 26.1612304,36.0944814 L25.4873225,39.6931572 L25.1864863,39.6931572 L26.2325956,34.1526331 Z" id="Fill-89" fill="#000000"></path>
                        <path d="M28.2324164,37.4768897 C28.0432696,38.4860483 28.3063925,39.2211931 28.9350444,39.2211931 C29.6118532,39.2211931 30.189157,38.5741034 30.390198,37.4989034 L30.648099,36.1383931 C30.8398567,35.0959241 30.4940546,34.4598414 29.8172457,34.4598414 C29.1610341,34.4598414 28.6855563,35.0304621 28.5048225,36.0176069 L28.2324164,37.4768897 Z M28.1955734,36.0396207 C28.4415802,34.7448621 29.0368703,34.0430276 29.8433549,34.0430276 C30.3968703,34.0430276 30.7734232,34.3827931 30.8897543,34.9861448 L31.0855734,34.1525172 L31.3246177,34.1525172 L30.2233891,39.9566276 C29.9773823,41.2510966 29.3101468,41.996669 28.4285256,41.996669 C27.5878089,41.996669 27.2135768,41.2838276 27.4279625,40.131869 L27.7285085,40.131869 C27.56257,41.020531 27.8396177,41.5801448 28.5027918,41.5801448 C29.2065802,41.5801448 29.7316655,40.9875103 29.919942,39.989069 L30.1444812,38.7936621 C29.8140546,39.3419793 29.353372,39.6380069 28.8337986,39.6380069 C28.0206416,39.6380069 27.6884744,38.7383379 27.9333208,37.4548759 L28.1955734,36.0396207 Z" id="Fill-91" fill="#000000"></path>
                        <path d="M32.1624044,36.6101834 L34.3222167,36.6101834 L34.4373874,36.017549 C34.637558,34.9533559 34.3146741,34.4597834 33.6654249,34.4597834 C33.0092133,34.4597834 32.4696229,34.9753697 32.2775751,36.017549 L32.1624044,36.6101834 Z M34.3608003,38.0254386 C34.1301689,39.1226524 33.5163123,39.8024731 32.6892304,39.8024731 C31.8076092,39.8024731 31.4061075,39.0896317 31.6451519,37.7951628 L31.9749983,36.0395628 C32.2302884,34.7120731 32.8847594,34.0429697 33.7185137,34.0429697 C34.5455956,34.0429697 34.9848106,34.7120731 34.7298106,36.0395628 L34.5421143,37.0269972 L32.0884283,37.0269972 L31.937285,37.8168869 C31.7556809,38.8153283 32.0182235,39.385949 32.7289744,39.385949 C33.3988208,39.385949 33.8940256,38.8260455 34.0599642,38.0254386 L34.3608003,38.0254386 Z" id="Fill-93" fill="#000000"></path>
                        <path d="M36.1091024,34.1526331 L36.3481468,34.1526331 L36.2387782,34.9315159 C36.5718157,34.3501779 37.0403311,34.0428538 37.5665768,34.0428538 C38.3663891,34.0428538 38.7757235,34.6572124 38.5195631,35.995709 L37.8238976,39.6931572 L37.5230614,39.6931572 L38.2283003,35.9629779 C38.4267304,34.920509 38.1009454,34.4599572 37.4656212,34.4599572 C36.816372,34.4599572 36.2358771,35.0523021 36.0357065,36.1164952 L35.3635392,39.6931572 L35.0627031,39.6931572 L36.1091024,34.1526331 Z" id="Fill-95" fill="#000000"></path>
                        <path d="M44.168785,36.2042897 C44.3660546,35.1841241 44.095099,34.4599862 43.4594846,34.4599862 C42.7896382,34.4599862 42.2050819,35.1070759 42.0049113,36.171269 L41.7194505,37.7070207 C41.5285631,38.7384828 41.873785,39.3858621 42.5503038,39.3858621 C43.2065154,39.3858621 43.6753208,38.815531 43.862727,37.8278069 L44.168785,36.2042897 Z M44.1653038,37.8057931 C43.9271297,39.0895448 43.3240068,39.8026759 42.5175222,39.8026759 C41.9846041,39.8026759 41.6257474,39.4956414 41.4928805,38.9253103 L40.9309522,41.8873241 L40.6304061,41.8873241 L42.0957133,34.1526621 L42.335628,34.1526621 L42.2259693,34.9315448 C42.5578464,34.3612138 43.0344846,34.0428828 43.5674027,34.0428828 C44.3738874,34.0428828 44.7066348,34.9315448 44.4612082,36.2263034 L44.1653038,37.8057931 Z" id="Fill-97" fill="#000000"></path>
                        <path d="M47.9290922,36.0175779 C48.1292628,34.9533848 47.8063788,34.4598124 47.1571297,34.4598124 C46.5009181,34.4598124 45.9749625,34.9753986 45.76957,36.0175779 L45.4281195,37.8279228 C45.2276587,38.8921159 45.5511229,39.3859779 46.200372,39.3859779 C46.8565836,39.3859779 47.3892116,38.8703917 47.5879317,37.8279228 L47.9290922,36.0175779 Z M47.8902184,37.805909 C47.6337679,39.1446952 46.9874198,39.8025021 46.1536655,39.8025021 C45.3265836,39.8025021 44.8804061,39.1336883 45.1368567,37.7951917 L45.4669932,36.0395917 C45.7222833,34.7121021 46.3697918,34.0429986 47.2102184,34.0429986 C48.0373003,34.0429986 48.4765154,34.7121021 48.2215154,36.0395917 L47.8902184,37.805909 Z" id="Fill-99" fill="#000000"></path>
                        <polygon id="Fill-101" fill="#000000" points="49.3541041 39.6931572 49.2250085 34.1526331 49.5188823 34.1526331 49.6323123 39.1115297 51.6171928 34.1526331 51.9043942 34.1526331 52.0178242 39.1115297 53.9957423 34.1526331 54.3102133 34.1526331 52.088029 39.6931572 51.7462884 39.6931572 51.6340188 34.8874883 49.6958447 39.6931572"></polygon>
                        <path d="M54.6147628,37.6415297 C54.4186536,38.6506883 54.6887389,39.3858331 55.3176809,39.3858331 C55.9941997,39.3858331 56.5642509,38.7494607 56.7722543,37.6742607 L57.0678686,36.0944814 C57.2317765,35.2278331 56.9918618,34.4599572 56.2335341,34.4599572 C55.5773225,34.4599572 55.1018447,35.0302883 54.9211109,36.0177228 L54.6147628,37.6415297 Z M54.6115717,36.0397366 C54.8575785,34.7449779 55.4531587,34.0428538 56.2593532,34.0428538 C56.7925614,34.0428538 57.1578003,34.3501779 57.2906672,34.920509 L57.9239608,31.5744124 L58.2247969,31.5744124 L56.6945068,39.6931572 L56.4551724,39.6931572 L56.5587389,38.9029779 C56.2257014,39.4846055 55.7493532,39.8026469 55.2164352,39.8026469 C54.4032782,39.8026469 54.0708208,38.9029779 54.3159573,37.6195159 L54.6115717,36.0397366 Z" id="Fill-103" fill="#000000"></path>
                        <path d="M58.5787218,36.6101834 L60.7385341,36.6101834 L60.8537048,36.017549 C61.0538754,34.9533559 60.7309915,34.4597834 60.0817423,34.4597834 C59.4255307,34.4597834 58.8859403,34.9753697 58.6938925,36.017549 L58.5787218,36.6101834 Z M60.7771177,38.0254386 C60.5464863,39.1226524 59.9326297,39.8024731 59.1055478,39.8024731 C58.2239266,39.8024731 57.8224249,39.0896317 58.0614693,37.7951628 L58.3913157,36.0395628 C58.6466058,34.7120731 59.3010768,34.0429697 60.1348311,34.0429697 C60.961913,34.0429697 61.401128,34.7120731 61.146128,36.0395628 L60.9584317,37.0269972 L58.5047457,37.0269972 L58.3536024,37.8168869 C58.1719983,38.8153283 58.434541,39.385949 59.1452918,39.385949 C59.8151382,39.385949 60.310343,38.8260455 60.4762816,38.0254386 L60.7771177,38.0254386 Z" id="Fill-105" fill="#000000"></path>
                        <path d="M62.5254198,34.1526331 L62.7644642,34.1526331 L62.644942,34.9755434 C63.0951809,34.2073779 63.7603857,33.9220676 64.2564608,34.130909 L64.1676894,34.55844 C63.3960171,34.2951434 62.6669898,34.9535297 62.4540546,36.0944814 L61.7798567,39.6931572 L61.4790205,39.6931572 L62.5254198,34.1526331 Z" id="Fill-107" fill="#000000"></path>
                        <polygon id="Fill-109" fill="#000000" points="63.8611962 36.7088979 65.1048652 36.7088979 65.0311792 37.1257117 63.7872201 37.1257117"></polygon>
                        <path d="M65.9332816,37.6415297 C65.7371724,38.6506883 66.0072577,39.3858331 66.6361997,39.3858331 C67.3127184,39.3858331 67.8827696,38.7494607 68.090773,37.6742607 L68.3863874,36.0944814 C68.5502952,35.2278331 68.3103805,34.4599572 67.5520529,34.4599572 C66.8958413,34.4599572 66.4203635,35.0302883 66.2396297,36.0177228 L65.9332816,37.6415297 Z M65.9300904,36.0397366 C66.1760973,34.7449779 66.7716775,34.0428538 67.577872,34.0428538 C68.1110802,34.0428538 68.4763191,34.3501779 68.609186,34.920509 L69.2424795,31.5744124 L69.5433157,31.5744124 L68.0130256,39.6931572 L67.7736911,39.6931572 L67.8772577,38.9029779 C67.5442201,39.4846055 67.067872,39.8026469 66.5349539,39.8026469 C65.7217969,39.8026469 65.3893396,38.9029779 65.6344761,37.6195159 L65.9300904,36.0397366 Z" id="Fill-111" fill="#000000"></path>
                        <path d="M70.1457133,34.1526331 L70.3853379,34.1526331 L70.2756792,34.9315159 C70.6087167,34.3501779 71.0772321,34.0428538 71.6034778,34.0428538 C72.4032901,34.0428538 72.8126246,34.6572124 72.5564642,35.995709 L71.8607986,39.6931572 L71.5599625,39.6931572 L72.2652014,35.9629779 C72.4636314,34.920509 72.1378464,34.4599572 71.5025222,34.4599572 C70.8529829,34.4599572 70.2727782,35.0523021 70.0726075,36.1164952 L69.4004403,39.6931572 L69.0996041,39.6931572 L70.1457133,34.1526331 Z" id="Fill-113" fill="#000000"></path>
                        <path d="M74.7318259,34.1526331 L75.9006485,34.1526331 L75.82,34.5694469 L74.6511775,34.5694469 L73.2731911,41.8872952 L72.9723549,41.8872952 L74.3506314,34.5694469 L73.5302218,34.5694469 L73.6111604,34.1526331 L74.43157,34.1526331 L74.5380375,33.5820124 C74.8394539,32.01324 75.1446416,31.1793228 76.38657,31.5523986 L76.3143345,31.9474883 C75.3500341,31.6951986 75.1017065,32.1557503 74.8496075,33.5272676 L74.7318259,34.1526331 Z" id="Fill-115" fill="#000000"></path>
                        <path d="M78.5473396,36.2042897 C78.7443191,35.1841241 78.4733635,34.4599862 77.8380392,34.4599862 C77.1681928,34.4599862 76.5836365,35.1070759 76.3834659,36.171269 L76.0980051,37.7070207 C75.9071177,38.7384828 76.2523396,39.3858621 76.9288584,39.3858621 C77.58507,39.3858621 78.0538754,38.815531 78.2412816,37.8278069 L78.5473396,36.2042897 Z M78.5438584,37.8057931 C78.3056843,39.0895448 77.7025614,39.8026759 76.8960768,39.8026759 C76.3631587,39.8026759 76.004302,39.4956414 75.8717253,38.9253103 L75.3095068,41.8873241 L75.0089608,41.8873241 L76.474558,34.1526621 L76.7138925,34.1526621 L76.6045239,34.9315448 C76.936401,34.3612138 77.4127491,34.0428828 77.9459573,34.0428828 C78.752442,34.0428828 79.0851894,34.9315448 78.8397628,36.2263034 L78.5438584,37.8057931 Z" id="Fill-117" fill="#000000"></path>
                    </g>
                </g>
            </g>
        </g>
    </g>
</svg>