<?xml version="1.0" encoding="UTF-8"?>
<svg width="127px" height="64px" viewBox="0 0 127 64" version="1.1" xmlns="http://www.w3.org/2000/svg" xmlns:xlink="http://www.w3.org/1999/xlink">
    <!-- Generator: Sketch 57.1 (83088) - https://sketch.com -->
    <title>palforzia_logo</title>
    <desc>Created with Sketch.</desc>
    <g id="Design-R4" stroke="none" stroke-width="1" fill="none" fill-rule="evenodd">
        <g id="desktop-/-microsite_financial" transform="translate(-169.000000, -48.000000)">
            <g id="header_navigation" transform="translate(0.000000, 30.000000)">
                <g id="palforzia_logo" transform="translate(166.000000, 17.000000)">
                    <g id="Group-121" transform="translate(2.987724, 1.492863)">
                        <g id="Group-119">
                            <path d="M63.4267219,2.56227842 C63.4267219,1.74847233 62.7653949,1.08860618 61.9497871,1.08860618 C61.1341794,1.08860618 60.4728523,1.74847233 60.4728523,2.56227842 C60.4728523,3.37608451 61.1341794,4.03595066 61.9497871,4.03595066 C62.7653949,4.03595066 63.4267219,3.37608451 63.4267219,2.56227842" id="Fill-1" fill="#51307D"></path>
                            <path d="M70.2595388,2.56841872 C70.2595388,1.67245368 69.531039,0.945995529 68.6330904,0.945995529 C67.7355752,0.945995529 67.0070753,1.67245368 67.0070753,2.56841872 C67.0070753,3.46438377 67.7355752,4.19084192 68.6330904,4.19084192 C69.531039,4.19084192 70.2595388,3.46438377 70.2595388,2.56841872" id="Fill-3" fill="#4F5DBF"></path>
                            <path d="M78.3314989,2.57473199 C78.3314989,1.46428882 77.4296499,0.564432035 76.3167483,0.564432035 C75.2038467,0.564432035 74.3015644,1.46428882 74.3015644,2.57473199 C74.3015644,3.68517516 75.2038467,4.58503195 76.3167483,4.58503195 C77.4296499,4.58503195 78.3314989,3.68517516 78.3314989,2.57473199" id="Fill-5" fill="#4C7ED9"></path>
                            <path d="M86.9405812,2.58087229 C86.9405812,1.30913812 85.9074203,0.278259415 84.6328706,0.278259415 C83.3578876,0.278259415 82.32516,1.30913812 82.32516,2.58087229 C82.32516,3.85260646 83.3578876,4.88348517 84.6328706,4.88348517 C85.9074203,4.88348517 86.9405812,3.85260646 86.9405812,2.58087229" id="Fill-7" fill="#5E8FAB"></path>
                            <path d="M95.9415194,2.55618136 C95.9415194,1.1845592 94.8268843,0.0723863654 93.4522255,0.0723863654 C92.0771333,0.0723863654 90.9629317,1.1845592 90.9629317,2.55618136 C90.9629317,3.92780353 92.0771333,5.03997636 93.4522255,5.03997636 C94.8268843,5.03997636 95.9415194,3.92780353 95.9415194,2.55618136" id="Fill-9" fill="#63B0B6"></path>
                            <path d="M105.830785,2.58701259 C105.830785,1.15831157 104.669779,0.000302690895 103.238349,0.000302690895 C101.806051,0.000302690895 100.645479,1.15831157 100.645479,2.58701259 C100.645479,4.01571361 101.806051,5.17372249 103.238349,5.17372249 C104.669779,5.17372249 105.830785,4.01571361 105.830785,2.58701259" id="Fill-11" fill="#49C5B1"></path>
                            <path d="M5.76823643,13.2858817 L10.3836577,13.2858817 C12.7074031,13.2858817 15.0311485,12.0474435 15.0311485,8.26769909 C15.0311485,6.5843053 14.17177,5.56812873 12.0070725,5.56812873 L7.10475841,5.56812873 L5.76823643,13.2858817 Z M3.92206794,2.26490624 L12.7074031,2.26490624 C17.1317068,2.26490624 18.9778753,4.32925814 18.9778753,7.63248063 C18.9778753,13.5081433 15.2539021,16.5891042 9.93815033,16.5891042 L5.19531748,16.5891042 L3.79465632,24.4975524 L0.00697730344,24.4975524 L3.92206794,2.26490624 Z" id="Fill-13" fill="#51307D"></path>
                            <path d="M21.9682782,18.5582814 C21.618113,20.5590682 22.8276567,21.7659401 24.6738252,21.7659401 C26.7431807,21.7659401 28.4935738,20.4319381 28.9074449,18.1453246 L29.6077755,14.2388824 C29.989577,12.1745305 28.5572796,10.8720948 26.4246516,10.8720948 C24.3557295,10.8720948 23.1461857,11.9202701 22.7960205,13.8894906 L21.9682782,18.5582814 Z M34.2231967,8.14095809 L32.1542745,19.7015882 C31.9315209,20.8764613 32.0589325,21.6072436 33.1727008,21.6072436 C33.5228661,21.6072436 34.000443,21.5436785 34.6054316,21.384982 L34.0957851,24.2432489 C33.013653,24.6246394 32.0268629,24.8149022 31.2311903,24.8149022 C29.7351871,24.8149022 28.8437391,24.1481174 28.5572796,22.7505503 C27.3156663,24.1165511 25.5652732,24.8149022 23.496351,24.8149022 C19.8356503,24.8149022 17.7346585,22.4647236 18.4666253,18.3044535 L19.1990255,14.1437509 C19.9309923,9.98261598 22.3821494,7.82313265 26.0428501,7.82313265 C28.1438419,7.82313265 29.7988929,8.5219162 30.6582713,9.91905089 L31.4855802,8.14095809 L34.2231967,8.14095809 Z" id="Fill-15" fill="#51307D"></path>
                            <polygon id="Fill-17" fill="#51307D" points="40.1265588 0.994555796 43.6598479 0.994555796 39.5215702 24.4976389 35.9887145 24.4976389"></polygon>
                            <path d="M51.0679673,8.14082837 L55.6196827,8.14082837 L55.0788334,11.1897905 L50.5266846,11.1897905 L47.0575347,30.8495641 L43.5242455,30.8495641 L46.9617593,11.1897905 L43.7786354,11.1897905 L44.3199182,8.14082837 L47.503042,8.14082837 L47.7257957,6.83839269 C48.5535379,2.29673202 50.3676368,-0.148577988 56.8929323,0.931163675 L56.3837191,3.82099689 C52.7867242,3.47203753 51.7999341,3.98012581 51.3227906,6.67969618 L51.0679673,8.14082837 Z" id="Fill-19" fill="#51307D"></path>
                            <path d="M66.1314888,13.8893176 C66.5137236,11.8249657 65.3358161,10.8719218 63.266894,10.8719218 C61.1659023,10.8719218 59.6698991,11.8565321 59.2876642,13.8893176 L58.4287191,18.7172374 C58.0464842,20.7815893 59.2560279,21.7661995 61.2933139,21.7661995 C63.3943056,21.7661995 64.921945,20.7180242 65.2725437,18.6852386 L66.1314888,13.8893176 Z M68.8691053,18.4314107 C68.1371385,22.6236796 65.2400407,24.8151617 61.0068544,24.8151617 C56.8369405,24.8151617 54.1950994,22.6872447 54.9270662,18.4949758 L55.6911026,14.143578 C56.4230694,9.95087668 59.3197338,7.82295969 63.5533535,7.82295969 C67.7232674,7.82295969 70.3655418,9.95087668 69.6331417,14.143578 L68.8691053,18.4314107 Z" id="Fill-21" fill="#51307D"></path>
                            <path d="M73.4899437,24.497466 L69.9570879,24.497466 L72.8216827,8.14091485 L75.5272296,8.14091485 L75.7504166,10.0781366 C77.5328793,8.26761261 78.6024436,8.14091485 82.610276,8.14091485 L82.0373571,11.189877 C78.2553119,11.189877 75.718347,11.8250955 75.3044759,14.175274 L73.4899437,24.497466 Z" id="Fill-23" fill="#51307D"></path>
                            <polygon id="Fill-25" fill="#51307D" points="93.0183759 11.189704 84.1697683 11.189704 84.7106177 8.14074188 97.9527596 8.14074188 97.4114768 11.189704 86.7795399 21.4487633 95.5969446 21.4487633 95.0877314 24.497293 81.8460229 24.497293 82.3873057 21.4487633"></polygon>
                            <polygon id="Fill-27" fill="#51307D" points="100.657006 8.14082837 104.222365 8.14082837 101.325267 24.4973795 97.7924116 24.4973795"></polygon>
                            <path d="M108.016285,18.5582814 C107.666119,20.5590682 108.875663,21.7659401 110.722265,21.7659401 C112.791187,21.7659401 114.542014,20.4319381 114.955885,18.1453246 L115.656215,14.2388824 C116.038017,12.1745305 114.605286,10.8720948 112.472658,10.8720948 C110.403736,10.8720948 109.194192,11.9202701 108.844027,13.8894906 L108.016285,18.5582814 Z M120.271203,8.14095809 L118.202281,19.7015882 C117.979527,20.8764613 118.106939,21.6072436 119.220707,21.6072436 C119.570873,21.6072436 120.048883,21.5436785 120.653438,21.384982 L120.144225,24.2432489 C119.061659,24.6246394 118.074869,24.8149022 117.279197,24.8149022 C115.783194,24.8149022 114.891745,24.1481174 114.605286,22.7505503 C113.364106,24.1165511 111.61328,24.8149022 109.544357,24.8149022 C105.883657,24.8149022 103.782665,22.4647236 104.515065,18.3044535 L105.247032,14.1437509 C105.979432,9.98261598 108.430156,7.82313265 112.090423,7.82313265 C114.191415,7.82313265 115.846899,8.5219162 116.706278,9.91905089 L117.53402,8.14095809 L120.271203,8.14095809 Z" id="Fill-29" fill="#51307D"></path>
                            <polygon id="Fill-31" fill="#51307D" points="121.807207 21.384809 124.045144 21.384809 124.021742 21.6788516 123.073089 21.6788516 122.87027 24.2439407 122.529206 24.2439407 122.732458 21.6788516 121.783804 21.6788516"></polygon>
                            <polygon id="Fill-33" fill="#51307D" points="126.374133 22.050556 125.342273 23.7209773 124.579103 22.050556 124.405754 24.2437677 124.065123 24.2437677 124.291343 21.384636 124.61984 21.384636 125.393411 23.0758133 126.434806 21.384636 126.762869 21.384636 126.537082 24.2437677 126.200784 24.2437677"></polygon>
                            <path d="M5.28597909,38.7622933 C5.5798059,37.2393257 5.175469,36.1582867 4.22594901,36.1582867 C3.22572439,36.1582867 2.35247803,37.1243031 2.05345074,38.7129979 L1.62701182,41.0056652 C1.34185246,42.545497 1.8575662,43.5119458 2.86819176,43.5119458 C3.84848123,43.5119458 4.54881181,42.6605196 4.82877069,41.1859825 L5.28597909,38.7622933 Z M5.28077861,41.1531189 C4.92497947,43.0695847 4.02356387,44.1341918 2.81878725,44.1341918 C2.02268126,44.1341918 1.48746575,43.6758313 1.28898097,42.8244051 L0.44910432,47.2462866 L0.000130011865,47.2462866 L2.1899632,35.6994938 L2.54706246,35.6994938 L2.38368088,36.8622593 C2.87945946,36.010833 3.59105773,35.5356083 4.3875971,35.5356083 C5.59237372,35.5356083 6.08945242,36.8622593 5.72281895,38.7951568 L5.28077861,41.1531189 Z" id="Fill-35" fill="#000000"></path>
                            <path d="M7.31082722,39.3682804 L10.536855,39.3682804 L10.708904,38.4835582 C11.0083647,36.8948634 10.5255873,36.1580273 9.55569876,36.1580273 C8.57540929,36.1580273 7.76933573,36.927727 7.48287625,38.4835582 L7.31082722,39.3682804 Z M10.5944936,41.4810629 C10.2503955,43.119053 9.3329451,44.1339324 8.097399,44.1339324 C6.78037881,44.1339324 6.18059073,43.0697577 6.53768999,41.1372925 L7.03086833,38.5164218 C7.41223647,36.5346612 8.3899257,35.5357813 9.63543937,35.5357813 C10.8705521,35.5357813 11.5266786,36.5346612 11.1457439,38.5164218 L10.865785,39.9905264 L7.20031713,39.9905264 L6.97409648,41.1697237 C6.70280506,42.6602601 7.09500752,43.5121188 8.15720446,43.5121188 C9.15742908,43.5121188 9.89719659,42.6762595 10.1450859,41.4810629 L10.5944936,41.4810629 Z" id="Fill-37" fill="#000000"></path>
                            <path d="M12.4268808,40.9079393 C12.1443217,42.4144751 12.5373909,43.5119458 13.4869109,43.5119458 C14.4975364,43.5119458 15.3608152,42.545497 15.6611426,40.9403705 L16.096249,38.6641349 C16.3926761,37.1078713 15.8557271,36.1582867 14.8550691,36.1582867 C13.8743462,36.1582867 13.1640481,37.009713 12.8840892,38.4838176 L12.4268808,40.9079393 Z M12.4325146,38.5166812 C12.7891805,36.5837837 13.6888626,35.5356083 14.8936393,35.5356083 C15.7105471,35.5356083 16.2726318,36.0432642 16.4468477,36.9439858 L16.738941,35.6994938 L17.1064412,35.6994938 L15.9866057,41.5959125 C15.7608184,42.7746773 15.7049133,43.4790822 16.1742561,43.4790822 C16.3073016,43.4790822 16.4732834,43.4466511 16.6869363,43.3316285 L16.588994,43.9214434 C16.3220363,44.0688971 16.0923487,44.1341918 15.9085986,44.1341918 C15.4084862,44.1341918 15.2867085,43.6101041 15.365149,42.7422461 C14.8650366,43.6429677 14.1421707,44.1341918 13.3352304,44.1341918 C12.1204862,44.1341918 11.6242742,42.7911091 11.9904743,40.8750757 L12.4325146,38.5166812 Z" id="Fill-39" fill="#000000"></path>
                            <path d="M19.1995889,35.6994938 L19.5575549,35.6994938 L19.39374,36.8622593 C19.891252,35.9944012 20.5911492,35.5356083 21.3772876,35.5356083 C22.5720967,35.5356083 23.1835858,36.4527617 22.8009176,38.4509541 L21.7616894,43.9707387 L21.3122817,43.9707387 L22.3658112,38.4020911 C22.6622382,36.8458275 22.1755605,36.1582867 21.2264739,36.1582867 C20.256152,36.1582867 19.3894062,37.0425766 19.0903789,38.6312713 L18.086254,43.9707387 L17.6368463,43.9707387 L19.1995889,35.6994938 Z" id="Fill-41" fill="#000000"></path>
                            <path d="M27.3469125,43.9707387 L26.9893798,43.9707387 L27.1531948,42.8079733 C26.6552493,43.6758313 25.9557855,44.1341918 25.1696471,44.1341918 C23.9752714,44.1341918 23.3633489,43.2170384 23.7460172,41.2192785 L24.7852453,35.6994938 L25.234653,35.6994938 L24.1806902,41.2681415 C23.8846965,42.8244051 24.3713742,43.5119458 25.3208942,43.5119458 C26.2903494,43.5119458 27.1570951,42.6280884 27.4561224,41.0389612 L28.4602474,35.6994938 L28.9096551,35.6994938 L27.3469125,43.9707387 Z" id="Fill-43" fill="#000000"></path>
                            <path d="M30.3852031,41.0553065 C30.0038349,43.037067 30.0718745,43.8560621 31.6827215,43.3644056 L31.5839125,43.9706522 C29.5102232,44.6257618 29.5158571,43.2662473 29.9539971,40.9567158 L30.8311438,36.3220858 L29.7082746,36.3220858 L29.8291857,35.6994073 L30.9516214,35.6994073 L31.5167397,32.6863357 L32.0034174,32.4727224 L31.4010291,35.6994073 L33.1470885,35.6994073 L33.0261774,36.3220858 L31.2801181,36.3220858 L30.3852031,41.0553065 Z" id="Fill-45" fill="#000000"></path>
                            <path d="M35.8014974,44.8587906 C35.2446132,43.6614319 34.9594539,42.1678685 35.1011668,40.3785329 C35.3486227,37.2504387 36.6383404,34.1370467 38.7527667,31.8404876 L39.2979498,31.8404876 C37.3412713,33.9398652 35.8834049,37.0817967 35.6298817,40.2942119 C35.4864353,42.0973848 35.7681277,43.6333249 36.3349794,44.8587906 L35.8014974,44.8587906 Z" id="Fill-47" fill="#000000"></path>
                            <path d="M39.0606782,40.1051598 L42.3582125,40.1051598 L41.9872453,33.3080196 L39.0606782,40.1051598 Z M43.0425082,43.9705225 L42.5627645,43.9705225 L42.3881152,40.7602694 L38.7737853,40.7602694 L37.3965263,43.9705225 L36.886013,43.9705225 L41.8364315,32.5058887 L42.4188847,32.5058887 L43.0425082,43.9705225 Z" id="Fill-49" fill="#000000"></path>
                            <path d="M45.3204895,35.6994938 L45.6784555,35.6994938 L45.4994725,36.9279864 C46.1720672,35.7812204 47.1657912,35.355291 47.9068588,35.6670627 L47.7742467,36.305308 C46.6214749,35.9122423 45.5324088,36.8951229 45.2138797,38.5984078 L44.2071545,43.9707387 L43.7577468,43.9707387 L45.3204895,35.6994938 Z" id="Fill-51" fill="#000000"></path>
                            <path d="M48.0844984,40.9079393 C47.8019393,42.4144751 48.1950085,43.5119458 49.1445285,43.5119458 C50.155154,43.5119458 51.0184328,42.545497 51.3187602,40.9403705 L51.7538666,38.6641349 C52.0502937,37.1078713 51.5133447,36.1582867 50.5126867,36.1582867 C49.5323972,36.1582867 48.8212323,37.009713 48.5417068,38.4838176 L48.0844984,40.9079393 Z M48.0901322,38.5166812 C48.4467981,36.5837837 49.3464802,35.5356083 50.5512568,35.5356083 C51.3681647,35.5356083 51.9302494,36.0432642 52.1044653,36.9439858 L52.3965586,35.6994938 L52.7640588,35.6994938 L51.6442233,41.5959125 C51.418436,42.7746773 51.3625309,43.4790822 51.8318737,43.4790822 C51.9649192,43.4790822 52.130901,43.4466511 52.3445538,43.3316285 L52.2466116,43.9214434 C51.9796539,44.0688971 51.7499662,44.1341918 51.5662161,44.1341918 C51.0661038,44.1341918 50.9443261,43.6101041 51.0227665,42.7422461 C50.5226542,43.6429677 49.7997883,44.1341918 48.9932813,44.1341918 C47.7785371,44.1341918 47.2818918,42.7911091 47.6480919,40.8750757 L48.0901322,38.5166812 Z" id="Fill-53" fill="#000000"></path>
                            <path d="M57.6876948,41.350041 C57.368299,43.0697577 56.4261463,44.1339324 55.1702317,44.1339324 C53.8532115,44.1339324 53.2534235,43.0697577 53.6105227,41.1372925 L54.1045678,38.49999 C54.472068,36.5670924 55.421588,35.5357813 56.7390416,35.5357813 C57.9945228,35.5357813 58.5943109,36.6003884 58.2645141,38.3196727 L57.8255074,38.3196727 C58.0733967,36.9934542 57.6491246,36.1580273 56.6588676,36.1580273 C55.6070716,36.1580273 54.8495358,36.9605906 54.5565757,38.4675588 L54.0469292,41.1697237 C53.7743377,42.6762595 54.1778078,43.5121188 55.2296038,43.5121188 C56.2198609,43.5121188 57.0007988,42.6762595 57.2382871,41.350041 L57.6876948,41.350041 Z" id="Fill-55" fill="#000000"></path>
                            <path d="M62.0950537,43.9707387 L63.1485832,38.4020911 C63.4350427,36.8458275 62.9583325,36.1582867 62.0092459,36.1582867 C61.038924,36.1582867 60.1721782,37.043009 59.8731509,38.6312713 L58.869026,43.9707387 L58.4196183,43.9707387 L60.7060936,31.8505629 L61.1550679,31.8505629 L60.2237496,36.7805327 C60.7173613,35.9619701 61.3947231,35.5356083 62.1600596,35.5356083 C63.3548687,35.5356083 63.9667912,36.4527617 63.5836896,38.4509541 L62.5444614,43.9707387 L62.0950537,43.9707387 Z" id="Fill-57" fill="#000000"></path>
                            <path d="M66.1754761,32.2764922 L66.6144828,32.2764922 L66.3163223,33.8487552 L65.8777489,33.8487552 L66.1754761,32.2764922 Z M65.5267169,35.6994938 L65.9761246,35.6994938 L64.413382,43.9707387 L63.9635409,43.9707387 L65.5267169,35.6994938 Z" id="Fill-59" fill="#000000"></path>
                            <path d="M69.0148486,40.2690021 L67.9608857,39.9087999 C67.1747473,39.6467561 66.7968462,39.0076459 66.9792961,37.8617446 C67.2072503,36.4036393 68.000756,35.5357813 69.3585133,35.5357813 C70.6347964,35.5357813 71.1102065,36.3712082 70.7769427,38.123356 L70.3279684,38.123356 C70.5767245,36.7807057 70.2694631,36.1580273 69.2688051,36.1580273 C68.2373776,36.1580273 67.6202546,36.7309779 67.4469055,37.7631539 C67.284824,38.6474437 67.5552487,39.1062366 68.1619707,39.3029857 L69.2363021,39.6631879 C70.031108,39.9412311 70.4094425,40.5803413 70.2191918,41.6938113 C69.983437,43.250075 69.06642,44.1339324 67.7290312,44.1339324 C66.4323796,44.1339324 65.8247908,43.2993703 66.1567544,41.54679 L66.5957611,41.54679 C66.3470051,42.8898728 66.7877453,43.5121188 67.8291404,43.5121188 C68.8501669,43.5121188 69.560465,42.922304 69.7606833,41.8088339 C69.9227648,40.9241116 69.6233041,40.4493193 69.0148486,40.2690021" id="Fill-61" fill="#000000"></path>
                            <path d="M77.0627131,43.9707387 L78.1162425,38.4020911 C78.402702,36.8458275 77.9259918,36.1582867 76.9769052,36.1582867 C76.0065833,36.1582867 75.1398376,37.043009 74.8408103,38.6312713 L73.8366853,43.9707387 L73.3872776,43.9707387 L75.673753,31.8505629 L76.1227273,31.8505629 L75.1914089,36.7805327 C75.6850207,35.9619701 76.3623825,35.5356083 77.127719,35.5356083 C78.322528,35.5356083 78.9340172,36.4527617 78.5513489,38.4509541 L77.5121207,43.9707387 L77.0627131,43.9707387 Z" id="Fill-63" fill="#000000"></path>
                            <polygon id="Fill-65" fill="#000000" points="79.070443 47.2463731 80.5551785 43.9708252 80.5239756 43.9708252 79.932855 35.6995803 80.3926636 35.6995803 80.923112 43.1838289 84.2826186 35.6995803 84.7627958 35.6995803 79.5813896 47.2463731"></polygon>
                            <path d="M88.9309329,38.7622933 C89.2256264,37.2393257 88.8208562,36.1582867 87.8713362,36.1582867 C86.8706782,36.1582867 85.9974318,37.1243031 85.6984045,38.7129979 L85.2719656,41.0056652 C84.9868062,42.545497 85.50252,43.5119458 86.5131455,43.5119458 C87.493435,43.5119458 88.1937656,42.6605196 88.4737245,41.1859825 L88.9309329,38.7622933 Z M88.9257324,41.1531189 C88.5699333,43.0695847 87.668951,44.1341918 86.4641744,44.1341918 C85.6680684,44.1341918 85.1319862,43.6758313 84.9335014,42.8244051 L84.0940581,47.2462866 L83.6450838,47.2462866 L85.8340502,35.6994938 L86.1924496,35.6994938 L86.0286347,36.8622593 C86.5244132,36.010833 87.2364449,35.5356083 88.0325509,35.5356083 C89.2373275,35.5356083 89.7344062,36.8622593 89.3677727,38.7951568 L88.9257324,41.1531189 Z" id="Fill-67" fill="#000000"></path>
                            <path d="M94.3032398,38.4836014 C94.6022671,36.8949067 94.1199231,36.1580705 93.1500346,36.1580705 C92.1697451,36.1580705 91.3840401,36.9277702 91.0772121,38.4836014 L90.5671322,41.1861987 C90.2676715,42.7748935 90.7508823,43.512162 91.7203374,43.512162 C92.7006269,43.512162 93.4971663,42.7424623 93.7935933,41.1861987 L94.3032398,38.4836014 Z M94.2451679,41.1533351 C93.8620662,43.1519599 92.8969448,44.1339756 91.6509978,44.1339756 C90.4154517,44.1339756 89.7489242,43.1355281 90.1320258,41.1373357 L90.6252042,38.516465 C91.0065723,36.5347045 91.9738606,35.5358245 93.2293418,35.5358245 C94.4648879,35.5358245 95.1210145,36.5347045 94.7400797,38.516465 L94.2451679,41.1533351 Z" id="Fill-69" fill="#000000"></path>
                            <path d="M96.152702,40.6621543 C95.8701428,42.1686901 96.263212,43.2661608 97.2023311,43.2661608 C98.21339,43.2661608 99.0758021,42.3001444 99.3761295,40.6950179 L99.761398,38.663962 C100.047857,37.1076984 99.531277,36.1581138 98.520218,36.1581138 C97.5399286,36.1581138 96.8296304,37.0099724 96.5596391,38.4836447 L96.152702,40.6621543 Z M96.0976636,38.5165083 C96.4651638,36.5836107 97.354445,35.5358678 98.5592216,35.5358678 C99.3860971,35.5358678 99.9486151,36.0430912 100.122398,36.9438129 L100.414924,35.6993209 L100.772024,35.6993209 L99.1269401,44.3640639 C98.7594399,46.2965291 97.7626822,47.4095667 96.445662,47.4095667 C95.1897474,47.4095667 94.6306964,46.345392 94.9509589,44.6256753 L95.3999333,44.6256753 C95.152044,45.9523263 95.5659151,46.7877532 96.5566055,46.7877532 C97.6079681,46.7877532 98.392373,45.9030309 98.673632,44.4124945 L99.0090626,42.6279154 C98.5154509,43.4464781 97.8272548,43.8884068 97.0510839,43.8884068 C95.8363398,43.8884068 95.3401278,42.5453241 95.7058945,40.6292907 L96.0976636,38.5165083 Z" id="Fill-71" fill="#000000"></path>
                            <path d="M101.667199,40.9079393 C101.384639,42.4144751 101.777709,43.5119458 102.727229,43.5119458 C103.737854,43.5119458 104.601133,42.545497 104.90146,40.9403705 L105.336567,38.6641349 C105.632994,37.1078713 105.096045,36.1582867 104.095387,36.1582867 C103.115097,36.1582867 102.403932,37.009713 102.124407,38.4838176 L101.667199,40.9079393 Z M101.672832,38.5166812 C102.029498,36.5837837 102.92918,35.5356083 104.133957,35.5356083 C104.950865,35.5356083 105.51295,36.0432642 105.687165,36.9439858 L105.979259,35.6994938 L106.346759,35.6994938 L105.226923,41.5959125 C105.001136,42.7746773 104.945231,43.4790822 105.414574,43.4790822 C105.547619,43.4790822 105.713601,43.4466511 105.927254,43.3316285 L105.829312,43.9214434 C105.562354,44.0688971 105.332666,44.1341918 105.148916,44.1341918 C104.648804,44.1341918 104.527026,43.6101041 104.605467,42.7422461 C104.105354,43.6429677 103.382488,44.1341918 102.575982,44.1341918 C101.361237,44.1341918 100.864592,42.7911091 101.230792,40.8750757 L101.672832,38.5166812 Z" id="Fill-73" fill="#000000"></path>
                            <path d="M107.96636,39.3682804 L111.192821,39.3682804 L111.36487,38.4835582 C111.663898,36.8948634 111.181554,36.1580273 110.211665,36.1580273 C109.231376,36.1580273 108.425302,36.927727 108.138409,38.4835582 L107.96636,39.3682804 Z M111.25046,41.4810629 C110.905928,43.119053 109.988911,44.1339324 108.753365,44.1339324 C107.436345,44.1339324 106.836557,43.0697577 107.193656,41.1372925 L107.686401,38.5164218 C108.067769,36.5346612 109.045459,35.5357813 110.290972,35.5357813 C111.526518,35.5357813 112.182645,36.5346612 111.80171,38.5164218 L111.521318,39.9905264 L107.85585,39.9905264 L107.630063,41.1697237 C107.358771,42.6602601 107.750974,43.5121188 108.812737,43.5121188 C109.813395,43.5121188 110.553163,42.6762595 110.801052,41.4810629 L111.25046,41.4810629 Z" id="Fill-75" fill="#000000"></path>
                            <path d="M113.031406,40.9079393 C112.748847,42.4144751 113.141916,43.5119458 114.091436,43.5119458 C115.102061,43.5119458 115.96534,42.545497 116.265668,40.9403705 L116.700774,38.6641349 C116.997201,37.1078713 116.460252,36.1582867 115.459594,36.1582867 C114.479305,36.1582867 113.76814,37.009713 113.488614,38.4838176 L113.031406,40.9079393 Z M113.03704,38.5166812 C113.393705,36.5837837 114.293388,35.5356083 115.498164,35.5356083 C116.315072,35.5356083 116.877157,36.0432642 117.051373,36.9439858 L117.343466,35.6994938 L117.710966,35.6994938 L116.591131,41.5959125 C116.365343,42.7746773 116.309438,43.4790822 116.778781,43.4790822 C116.911827,43.4790822 117.077808,43.4466511 117.291461,43.3316285 L117.193519,43.9214434 C116.926561,44.0688971 116.696874,44.1341918 116.513123,44.1341918 C116.013011,44.1341918 115.891233,43.6101041 115.969674,42.7422461 C115.469562,43.6429677 114.746696,44.1341918 113.940189,44.1341918 C112.725444,44.1341918 112.228799,42.7911091 112.594999,40.8750757 L113.03704,38.5166812 Z" id="Fill-77" fill="#000000"></path>
                            <path d="M120.835065,31.8402714 C121.40365,33.0380625 121.689243,34.5316259 121.54753,36.3205291 C121.300074,39.4486232 120.010356,42.5624477 117.883795,44.8585744 L117.338612,44.8585744 C119.295291,42.7600616 120.764858,39.6176977 121.020115,36.3910128 C121.161828,34.6021096 120.868434,33.0661695 120.301583,31.8402714 L120.835065,31.8402714 Z" id="Fill-79" fill="#000000"></path>
                            <path d="M22.5521182,56.1936565 C22.2695591,57.7001923 22.6626283,58.797663 23.6121483,58.797663 C24.6227738,58.797663 25.4860526,57.8312142 25.78638,56.2260877 L26.2214864,53.9498521 C26.5179135,52.3935885 25.9805311,51.4440039 24.9803065,51.4440039 C24.000017,51.4440039 23.2892855,52.2954302 23.0093266,53.7695349 L22.5521182,56.1936565 Z M22.557752,53.8023984 C22.9144179,51.8695009 23.8141,50.8213255 25.0188767,50.8213255 C25.8357845,50.8213255 26.3983026,51.3289814 26.5716517,52.229703 L26.8646118,50.985211 L27.232112,50.985211 L26.1118431,56.8816297 C25.8860558,58.0603945 25.8301507,58.7647994 26.2999269,58.7647994 C26.432539,58.7647994 26.5985208,58.7323683 26.8121737,58.6173457 L26.7142314,59.2071606 C26.4472737,59.3546143 26.2175861,59.419909 26.033836,59.419909 C25.5337236,59.419909 25.4119459,58.8958214 25.4903864,58.0279633 C24.990274,58.9286849 24.2674081,59.419909 23.4609011,59.419909 C22.2457236,59.419909 21.7495116,58.0768263 22.1157117,56.1607929 L22.557752,53.8023984 Z" id="Fill-81" fill="#000000"></path>
                            <polygon id="Fill-83" fill="#000000" points="29.8851774 47.1361504 30.3341518 47.1361504 28.0481098 59.2563262 27.5987021 59.2563262"></polygon>
                            <polygon id="Fill-85" fill="#000000" points="32.3152726 47.1361504 32.7642469 47.1361504 30.4782049 59.2563262 30.0287972 59.2563262"></polygon>
                            <path d="M33.2929184,54.6539976 L36.5189462,54.6539976 L36.6909952,53.7692754 C36.9900225,52.1805806 36.5076785,51.4437445 35.53779,51.4437445 C34.5575005,51.4437445 33.751427,52.2134442 33.4645341,53.7692754 L33.2929184,54.6539976 Z M36.5765848,56.7667801 C36.2320534,58.4047702 35.3150363,59.4196496 34.0794902,59.4196496 C32.76247,59.4196496 32.162682,58.3554749 32.5197812,56.4230097 L33.0129596,53.802139 C33.3938943,51.8203785 34.3715836,50.8214985 35.6170972,50.8214985 C36.8526433,50.8214985 37.5087699,51.8203785 37.1278351,53.802139 L36.8474428,55.2762436 L33.181975,55.2762436 L32.9561877,56.4554409 C32.6848963,57.9459773 33.0770988,58.797836 34.1388623,58.797836 C35.1395203,58.797836 35.8792878,57.9619767 36.1271771,56.7667801 L36.5765848,56.7667801 Z" id="Fill-87" fill="#000000"></path>
                            <path d="M39.1878731,50.985211 L39.5458391,50.985211 L39.3668561,52.2137037 C40.0394508,51.0669376 41.0331749,50.6410082 41.7742425,50.9527799 L41.6416304,51.5910252 C40.4888585,51.1979595 39.3997925,52.1808401 39.0812634,53.884125 L38.0745382,59.2564559 L37.6251305,59.2564559 L39.1878731,50.985211 Z" id="Fill-89" fill="#000000"></path>
                            <path d="M42.1753291,55.9478715 C41.89277,57.4544073 42.2858392,58.551878 43.2249582,58.551878 C44.2360172,58.551878 45.0984292,57.5858616 45.3987566,55.9807351 L45.7840251,53.9496792 C46.0704846,52.3934156 45.5539041,51.443831 44.5428452,51.443831 C43.5625557,51.443831 42.8522575,52.2956896 42.5822662,53.7693619 L42.1753291,55.9478715 Z M42.1202907,53.8022255 C42.4877909,51.8693279 43.3770721,50.821585 44.5818487,50.821585 C45.4087242,50.821585 45.9712422,51.3288084 46.1450247,52.2295301 L46.4375514,50.9850381 L46.7946507,50.9850381 L45.1495672,59.6497811 C44.782067,61.5822463 43.7853094,62.6952839 42.4682892,62.6952839 C41.2123745,62.6952839 40.6533235,61.6311092 40.9735861,59.9113926 L41.4225604,59.9113926 C41.1746711,61.2380435 41.5885422,62.0734704 42.5792326,62.0734704 C43.6305952,62.0734704 44.4150002,61.1887481 44.6962592,59.6982117 L45.0316898,57.9136326 C44.5380781,58.7321953 43.8498819,59.174124 43.0737111,59.174124 C41.8589669,59.174124 41.3627549,57.8310413 41.7285217,55.9150079 L42.1202907,53.8022255 Z" id="Fill-91" fill="#000000"></path>
                            <path d="M48.0461882,54.6539976 L51.2726494,54.6539976 L51.4446984,53.7692754 C51.7437257,52.1805806 51.2613817,51.4437445 50.2914931,51.4437445 C49.3112037,51.4437445 48.5051301,52.2134442 48.2182373,53.7692754 L48.0461882,54.6539976 Z M51.3302879,56.7667801 C50.9857565,58.4047702 50.0687395,59.4196496 48.8331934,59.4196496 C47.5161732,59.4196496 46.9163851,58.3554749 47.2734844,56.4230097 L47.7662293,53.802139 C48.1475975,51.8203785 49.1252867,50.8214985 50.3708004,50.8214985 C51.6063465,50.8214985 52.262473,51.8203785 51.8815383,53.802139 L51.601146,55.2762436 L47.9356781,55.2762436 L47.7098909,56.4554409 C47.4385994,57.9459773 47.8308019,58.797836 48.8925655,58.797836 C49.8932235,58.797836 50.632991,57.9619767 50.8808803,56.7667801 L51.3302879,56.7667801 Z" id="Fill-93" fill="#000000"></path>
                            <path d="M53.9420096,50.985211 L54.2991089,50.985211 L54.1357273,52.1479765 C54.6332394,51.2801185 55.3331366,50.8213255 56.119275,50.8213255 C57.3140841,50.8213255 57.9255732,51.7384789 57.5429049,53.7366713 L56.5036768,59.2564559 L56.0542691,59.2564559 L57.1077986,53.6878083 C57.4042256,52.1315447 56.9175479,51.4440039 55.9684612,51.4440039 C54.9985727,51.4440039 54.1313936,52.3282938 53.8323663,53.9169886 L52.8282413,59.2564559 L52.3788336,59.2564559 L53.9420096,50.985211 Z" id="Fill-95" fill="#000000"></path>
                            <path d="M65.9820618,54.0480537 C66.2767554,52.5250861 65.8719851,51.4440472 64.9224651,51.4440472 C63.9218071,51.4440472 63.0485607,52.4100636 62.7495334,53.9987583 L62.3230945,56.2914257 C62.0379352,57.8312575 62.5536489,58.7977063 63.5642745,58.7977063 C64.5445639,58.7977063 65.2448945,57.94628 65.5248534,56.4717429 L65.9820618,54.0480537 Z M65.9768613,56.4388794 C65.6210622,58.3553451 64.72008,59.4199523 63.5153033,59.4199523 C62.7191973,59.4199523 62.1831151,58.9615918 61.9846303,58.1101655 L61.145187,62.5320471 L60.6962127,62.5320471 L62.8851792,50.9852543 L63.2435785,50.9852543 L63.0797636,52.1480197 C63.5755422,51.2965935 64.2875738,50.8213688 65.0836798,50.8213688 C66.2884564,50.8213688 66.7855351,52.1480197 66.4189017,54.0809173 L65.9768613,56.4388794 Z" id="Fill-97" fill="#000000"></path>
                            <path d="M71.5994411,53.7693186 C71.8984684,52.1806239 71.4161244,51.4437877 70.4462359,51.4437877 C69.4659464,51.4437877 68.6802414,52.2134874 68.3734134,53.7693186 L67.8633335,56.4719159 C67.5638728,58.0606107 68.0470836,58.7978792 69.0169721,58.7978792 C69.9972616,58.7978792 70.7929342,58.0281795 71.0897946,56.4719159 L71.5994411,53.7693186 Z M71.5413692,56.4390523 C71.1582675,58.4376771 70.1927127,59.4196928 68.9471991,59.4196928 C67.711653,59.4196928 67.0451255,58.4212453 67.4282271,56.423053 L67.9214055,53.8021822 C68.3027736,51.8204217 69.2700619,50.8215417 70.5255431,50.8215417 C71.7610892,50.8215417 72.4172158,51.8204217 72.036281,53.8021822 L71.5413692,56.4390523 Z" id="Fill-99" fill="#000000"></path>
                            <polygon id="Fill-101" fill="#000000" points="73.7282121 59.2564559 73.5353611 50.985211 73.9743679 50.985211 74.1438167 58.3881655 77.1089539 50.985211 77.5379931 50.985211 77.7074419 58.3881655 80.6621782 50.985211 81.1319544 50.985211 77.8123181 59.2564559 77.3018049 59.2564559 77.1340896 52.0822493 74.2387253 59.2564559"></polygon>
                            <path d="M81.5869093,56.1936565 C81.2939492,57.7001923 81.6974194,58.797663 82.6369718,58.797663 C83.6475974,58.797663 84.4991751,57.847646 84.8099034,56.2425195 L85.2515104,53.884125 C85.4963661,52.5903376 85.1379667,51.4440039 84.00513,51.4440039 C83.0248405,51.4440039 82.3145424,52.2954302 82.0445511,53.7695349 L81.5869093,56.1936565 Z M81.5821422,53.8023984 C81.9496424,51.8695009 82.8393569,50.8213255 84.0437002,50.8213255 C84.8402395,50.8213255 85.385856,51.2801185 85.5843408,52.1315447 L86.5303938,47.1362801 L86.9798015,47.1362801 L84.6937595,59.2564559 L84.3362269,59.2564559 L84.490941,58.0768263 C83.9934289,58.9451167 83.2818306,59.419909 82.4857247,59.419909 C81.2709805,59.419909 80.7743351,58.0768263 81.1405352,56.1607929 L81.5821422,53.8023984 Z" id="Fill-103" fill="#000000"></path>
                            <path d="M87.5085164,54.6539976 L90.7349775,54.6539976 L90.9070265,53.7692754 C91.2060538,52.1805806 90.7237098,51.4437445 89.7538213,51.4437445 C88.7735318,51.4437445 87.9674583,52.2134442 87.6805654,53.7692754 L87.5085164,54.6539976 Z M90.7926161,56.7667801 C90.4480847,58.4047702 89.5310676,59.4196496 88.2955215,59.4196496 C86.9785013,59.4196496 86.3787133,58.3554749 86.7358125,56.4230097 L87.2285575,53.802139 C87.6099256,51.8203785 88.5876149,50.8214985 89.8331285,50.8214985 C91.0686746,50.8214985 91.7248012,51.8203785 91.3438664,53.802139 L91.0634742,55.2762436 L87.3980063,55.2762436 L87.172219,56.4554409 C86.9009276,57.9459773 87.2931301,58.797836 88.3548936,58.797836 C89.3555516,58.797836 90.0953191,57.9619767 90.3432084,56.7667801 L90.7926161,56.7667801 Z" id="Fill-105" fill="#000000"></path>
                            <path d="M93.4043378,50.985211 L93.7614371,50.985211 L93.5828874,52.2137037 C94.2554821,51.0669376 95.2492062,50.6410082 95.9902738,50.9527799 L95.8576617,51.5910252 C94.7048898,51.1979595 93.6158238,52.1808401 93.2977281,53.884125 L92.2905695,59.2564559 L91.8411618,59.2564559 L93.4043378,50.985211 Z" id="Fill-107" fill="#000000"></path>
                            <polygon id="Fill-109" fill="#000000" points="95.3998032 54.8013649 97.2576728 54.8013649 97.1475961 55.4236109 95.2892932 55.4236109"></polygon>
                            <path d="M98.4952124,56.1936565 C98.2022523,57.7001923 98.6057225,58.797663 99.5452749,58.797663 C100.5559,58.797663 101.407478,57.847646 101.718207,56.2425195 L102.159814,53.884125 C102.404669,52.5903376 102.04627,51.4440039 100.913433,51.4440039 C99.9331436,51.4440039 99.2228455,52.2954302 98.9528542,53.7695349 L98.4952124,56.1936565 Z M98.4904453,53.8023984 C98.8579455,51.8695009 99.74766,50.8213255 100.952003,50.8213255 C101.748543,50.8213255 102.294159,51.2801185 102.492644,52.1315447 L103.438697,47.1362801 L103.888105,47.1362801 L101.602063,59.2564559 L101.24453,59.2564559 L101.399244,58.0768263 C100.901732,58.9451167 100.190134,59.419909 99.3940278,59.419909 C98.1792836,59.419909 97.6826383,58.0768263 98.0488383,56.1607929 L98.4904453,53.8023984 Z" id="Fill-111" fill="#000000"></path>
                            <path d="M104.788003,50.985211 L105.145969,50.985211 L104.982154,52.1479765 C105.479667,51.2801185 106.179564,50.8213255 106.965702,50.8213255 C108.160511,50.8213255 108.772,51.7384789 108.389332,53.7366713 L107.350104,59.2564559 L106.900696,59.2564559 L107.954226,53.6878083 C108.250653,52.1315447 107.763975,51.4440039 106.814888,51.4440039 C105.844566,51.4440039 104.977821,52.3282938 104.678793,53.9169886 L103.674668,59.2564559 L103.225261,59.2564559 L104.788003,50.985211 Z" id="Fill-113" fill="#000000"></path>
                            <path d="M111.639022,50.985211 L113.385081,50.985211 L113.264604,51.607457 L111.518544,51.607457 L109.460023,62.5320038 L109.010615,62.5320038 L111.06957,51.607457 L109.843991,51.607457 L109.964903,50.985211 L111.190481,50.985211 L111.349529,50.1333524 C111.799803,47.7913897 112.255712,46.5464653 114.110981,47.1034165 L114.003071,47.6932314 C112.56254,47.3165974 112.191572,48.0041381 111.814971,50.0516258 L111.639022,50.985211 Z" id="Fill-115" fill="#000000"></path>
                            <path d="M117.338872,54.0480537 C117.633132,52.5250861 117.228362,51.4440472 116.279275,51.4440472 C115.278617,51.4440472 114.405371,52.4100636 114.106344,53.9987583 L113.679905,56.2914257 C113.394746,57.8312575 113.910459,58.7977063 114.921085,58.7977063 C115.901374,58.7977063 116.601705,57.94628 116.881664,56.4717429 L117.338872,54.0480537 Z M117.333672,56.4388794 C116.977873,58.3553451 116.07689,59.4199523 114.872114,59.4199523 C114.076008,59.4199523 113.539925,58.9615918 113.341874,58.1101655 L112.501997,62.5320471 L112.053023,62.5320471 L114.242423,50.9852543 L114.599956,50.9852543 L114.436574,52.1480197 C114.932353,51.2965935 115.643951,50.8213688 116.44049,50.8213688 C117.645267,50.8213688 118.142345,52.1480197 117.775712,54.0809173 L117.333672,56.4388794 Z" id="Fill-117" fill="#000000"></path>
                        </g>
                    </g>
                </g>
            </g>
        </g>
    </g>
</svg>